<svg width="20" height="20" viewBox="0 0 20 20" fill="none" xmlns="http://www.w3.org/2000/svg">
<circle cx="10" cy="10" r="10" fill="url(#paint0_linear)"/>
<path d="M12.2567 3.61873C12.3998 3.55549 12.5755 3.74434 12.4902 3.8522L9.92212 8.48255C9.90915 8.49552 9.88321 8.52924 9.88321 8.56037C9.88321 8.5915 9.93509 8.6771 9.96103 8.71601C9.96103 8.71601 14.422 8.69309 14.5136 8.71601C14.6051 8.73894 14.6424 8.85764 14.6303 8.91056C14.6181 8.96349 6.90266 16.1635 6.80928 16.2257C6.68504 16.1997 6.6437 16.1556 6.61472 16.0312C7.84689 14.3321 10.3506 10.939 10.3501 10.895C10.3488 10.775 10.3075 10.7314 10.1556 10.7004H5.44741C5.34578 10.6252 5.33831 10.5663 5.36959 10.467C7.6264 8.19721 12.1667 3.65854 12.2567 3.61873Z" fill="white"/>
<defs>
<linearGradient id="paint0_linear" x1="10" y1="0" x2="10" y2="20" gradientUnits="userSpaceOnUse">
<stop stop-color="#6ECACF"/>
<stop offset="1" stop-color="#2CC6B8"/>
</linearGradient>
</defs>
</svg>
