<svg width="18" height="20" viewBox="0 0 18 20" fill="none" xmlns="http://www.w3.org/2000/svg">
<rect x="2" y="2" width="14" height="14" fill="white"/>
<path d="M0 0L1.63818 18.001L8.98881 20L16.3602 17.9979L18 0H0V0ZM14.5965 4.11702L14.0425 10.2009L13.6587 14.3986L13.6251 14.7715L9.0032 16.0271L4.38767 14.7715L4.07187 11.3046H6.33366L6.49436 13.0654L9.0064 13.7289L9.01279 13.7273H9.01439L11.52 13.0647L11.7831 10.2017H6.52314L6.47837 9.70587L6.37523 8.58653L6.32167 7.99436H11.9829L12.1892 5.73376H3.56578L3.52101 5.23714L3.41787 4.11781L3.36431 3.52563H14.6517L14.5973 4.11781L14.5965 4.11702Z" fill="#4B9DDB"/>
</svg>
