<svg width="14" height="20" viewBox="0 0 14 20" fill="none" xmlns="http://www.w3.org/2000/svg">
<path d="M3.33333 20C5.17332 20 6.66665 18.5067 6.66665 16.6667V13.3334H3.33333C1.49333 13.3334 0 14.8267 0 16.6667C0 18.5067 1.49333 20 3.33333 20Z" fill="#0ACF83"/>
<path d="M0 9.99995C0 8.15996 1.49333 6.66663 3.33333 6.66663H6.66665V13.3333H3.33333C1.49333 13.3333 0 11.8399 0 9.99995Z" fill="#A259FF"/>
<path d="M0 3.33333C0 1.49333 1.49333 0 3.33333 0H6.66665V6.66666H3.33333C1.49333 6.66666 0 5.17333 0 3.33333Z" fill="#F24E1E"/>
<path d="M6.66675 0H10.0001C11.8401 0 13.3334 1.49333 13.3334 3.33333C13.3334 5.17333 11.8401 6.66666 10.0001 6.66666H6.66675V0Z" fill="#FF7262"/>
<path d="M13.3334 9.99995C13.3334 11.8399 11.8401 13.3333 10.0001 13.3333C8.16008 13.3333 6.66675 11.8399 6.66675 9.99995C6.66675 8.15996 8.16008 6.66663 10.0001 6.66663C11.8401 6.66663 13.3334 8.15996 13.3334 9.99995Z" fill="#1ABCFE"/>
</svg>
