<svg width="20" height="20" viewBox="0 0 20 20" fill="none" xmlns="http://www.w3.org/2000/svg">
<path d="M19.5789 9L11 0.421053C10.7368 0.157895 10.3684 0 10 0C9.63158 0 9.26316 0.157895 9 0.421053L7.1579 2.26316L9.31579 4.42105C9.52632 4.31579 9.73684 4.26316 10 4.26316C10.8947 4.26316 11.5789 4.94737 11.5789 5.84211C11.5789 6.10526 11.5263 6.31579 11.4211 6.52632L13.5263 8.63158C13.7368 8.52632 13.9474 8.47368 14.2105 8.47368C15.1053 8.47368 15.7895 9.1579 15.7895 10.0526C15.7895 10.9474 15.1053 11.6316 14.2105 11.6316C13.3158 11.6316 12.6316 10.9474 12.6316 10.0526C12.6316 9.78947 12.6842 9.57895 12.7895 9.36842L10.6842 7.26316C10.6316 7.26316 10.5789 7.31579 10.5263 7.31579V12.7895C11.1579 13 11.5789 13.5789 11.5789 14.2632C11.5789 15.1579 10.8947 15.8421 10 15.8421C9.10526 15.8421 8.42105 15.1579 8.42105 14.2632C8.42105 13.5789 8.84211 13 9.47368 12.7895V7.26316C8.84211 7.05263 8.42105 6.47368 8.42105 5.78947C8.42105 5.52632 8.47368 5.31579 8.57895 5.10526L6.42105 2.94737L0.421053 9C0.157895 9.26316 0 9.63158 0 10C0 10.3684 0.157895 10.7368 0.421053 11L9 19.5789C9.26316 19.8421 9.63158 20 10 20C10.3684 20 10.7368 19.8421 11 19.5789L19.5789 11C19.8421 10.7368 20 10.3684 20 10C20 9.63158 19.8421 9.26316 19.5789 9Z" fill="#F4511E"/>
</svg>
