<svg width="18" height="20" viewBox="0 0 18 20" fill="none" xmlns="http://www.w3.org/2000/svg">
<rect x="2" y="3" width="14" height="14" fill="white"/>
<path d="M0.000793908 0L1.63875 18.0008L8.98928 20L16.3605 17.9977L18 0H0H0.000793908ZM3.40373 4.27184L3.34974 3.67922H8.99246V5.8866H5.81262L6.01826 8.14757H8.99246V10.355H3.95792L3.40373 4.27107V4.27184ZM14.1755 8.74097L13.6459 14.553L13.6118 14.9258L8.98928 16.181L4.37316 14.9258L4.05717 11.4594H6.31917L6.47956 13.2202L8.99087 13.8835L11.5038 13.2186L11.765 10.3557H8.99802V8.14835H14.2279L14.1731 8.74097H14.1755ZM14.5836 4.27184L14.4811 5.39107L14.4359 5.88738H9.0004V3.68H14.6376L14.5836 4.27184Z" fill="#DD4B25"/>
</svg>
