<svg width="20" height="20" viewBox="0 0 20 20" fill="none" xmlns="http://www.w3.org/2000/svg">
<path d="M1 10C1 5.02944 5.02944 1 10 1H17C18.1046 1 19 1.89543 19 3V10C19 14.9706 14.9706 19 10 19C5.02944 19 1 14.9706 1 10Z" fill="white"/>
<path d="M7.97689 0.155598C4.96852 0.809103 2.45809 2.71775 1.06801 5.40438C0.341854 6.80475 0.0721377 7.88355 0.00989556 9.54325C-0.104215 12.4788 0.767175 14.8646 2.69668 16.8563C4.62619 18.879 6.83578 19.8852 9.57444 19.989C11.1305 20.0512 12.3131 19.8541 13.7343 19.3043C15.5808 18.5886 17.5311 16.9289 18.5892 15.1655C19.1494 14.2319 19.7199 12.6552 19.8859 11.6179C19.9585 11.2133 20 8.74452 20 5.46662V0L14.3256 0.0103741C9.89602 0.0103741 8.49558 0.0518665 7.97689 0.155598ZM17.2821 6.14087L17.3028 9.54325H13.8277H10.3525V6.12013V2.69701L13.8069 2.71775L17.251 2.74887L17.2821 6.14087ZM9.52257 13.8066V17.2505L8.91052 17.1882C6.96027 16.9808 4.80254 15.5493 3.73405 13.734C3.25686 12.9352 2.84191 11.7423 2.73818 10.9125L2.66556 10.3731H6.09925H9.52257V13.8066ZM17.1991 10.7673C17.1991 11.8357 16.4418 13.6095 15.5082 14.7194C14.3775 16.0576 12.4168 17.126 10.8608 17.2297L10.4043 17.2712L10.3732 13.9518C10.3628 12.1261 10.3732 10.5806 10.4043 10.5079C10.4355 10.4042 11.2031 10.3731 13.8277 10.3731H17.1991V10.7673Z" fill="#E9247B"/>
</svg>
