<svg width="20" height="20" viewBox="0 0 20 20" fill="none" xmlns="http://www.w3.org/2000/svg">
<rect width="20" height="20" rx="2" fill="#EFD81E"/>
<path d="M14.8712 8.69382C14.1357 8.80257 13.501 9.15451 13.1135 9.67056C12.7754 10.1174 12.6212 10.5979 12.6231 11.195C12.6271 12.3971 13.1728 13.19 14.4264 13.8148C14.6676 13.9334 14.7724 13.9828 15.4367 14.2695C16.449 14.7084 16.7258 14.9516 16.7555 15.438C16.7792 15.8038 16.5934 16.1063 16.2375 16.2764C16.0121 16.3851 15.8796 16.4148 15.5731 16.4286C15.0788 16.4504 14.7071 16.3554 14.3492 16.1202C14.1219 15.9719 13.9439 15.7761 13.6137 15.3234C13.59 15.2917 13.5188 15.3273 12.8268 15.7307C12.4096 15.9739 12.0636 16.1815 12.0616 16.1913C12.0517 16.217 12.2554 16.5512 12.3859 16.7252C12.6192 17.0356 13.0008 17.3777 13.3508 17.5853C13.7739 17.8383 14.2741 18.0084 14.8337 18.0894C15.1283 18.131 15.8539 18.1369 16.1188 18.0974C16.9216 17.9807 17.5187 17.7138 17.9596 17.2748C18.4836 16.7529 18.7169 16.0707 18.6575 15.2245C18.622 14.7045 18.4855 14.2893 18.2325 13.9275C17.8331 13.356 17.228 12.9547 15.9112 12.3892C14.804 11.9147 14.5648 11.7249 14.5094 11.276C14.4521 10.8233 14.6893 10.4693 15.1263 10.3527C15.2785 10.3131 15.5791 10.3171 15.761 10.3646C15.9666 10.416 16.0911 10.4871 16.2592 10.6473C16.3798 10.76 16.449 10.849 16.6131 11.104C16.6289 11.1297 16.7496 11.0585 17.3526 10.671C17.748 10.416 18.0822 10.1985 18.0921 10.1886C18.1059 10.1747 18.0604 10.0937 17.9616 9.94538C17.4495 9.18021 16.8286 8.79861 15.9112 8.68591C15.6858 8.65625 15.0927 8.66219 14.8712 8.69382Z" fill="white"/>
<path d="M9.10969 12.1381C9.10969 15.357 9.10772 15.5231 9.07213 15.6931C8.97327 16.1716 8.73007 16.3812 8.21996 16.4267C7.69204 16.4722 7.29661 16.2092 6.94269 15.5706C6.91105 15.5132 6.87744 15.4658 6.86755 15.4658C6.83394 15.4658 5.33325 16.3832 5.33325 16.4049C5.33325 16.4425 5.56063 16.8201 5.67531 16.9724C5.8236 17.1701 6.15774 17.4865 6.35151 17.6169C6.92687 18.0005 7.68018 18.1785 8.47106 18.1172C9.92232 18.0065 10.7429 17.2788 10.9821 15.8909C11.0137 15.709 11.0157 15.4005 11.0216 12.2271L11.0295 8.76307H10.0686H9.10969V12.1381Z" fill="white"/>
</svg>
