<svg width="17" height="20" viewBox="0 0 17 20" fill="none" xmlns="http://www.w3.org/2000/svg">
<path d="M8.31185 0.000199996C7.83069 -0.00504797 7.34363 0.0927477 6.92004 0.321702C6.46985 0.565035 6.10105 0.954251 5.87383 1.41376C5.64671 1.87305 5.55747 2.36359 5.54397 2.90384C5.51831 3.93033 5.56705 5.00698 5.64426 5.98264C5.66476 6.27972 5.70157 6.45358 5.66393 6.75845C5.5373 7.40678 4.97165 7.84317 4.67016 8.41264C4.33757 9.04084 4.19736 9.75113 3.94633 10.4163C3.71659 11.0251 3.39405 11.5959 3.17635 12.2091C2.87195 13.0666 2.78095 14.0088 2.98205 14.8963C3.13536 15.5729 3.4556 16.2073 3.8872 16.75C3.82474 16.8629 3.76421 16.977 3.69972 17.0887C3.49972 17.4352 3.25538 17.7638 3.14148 18.1475C3.08453 18.3394 3.06211 18.544 3.09887 18.7408C3.13563 18.9376 3.2349 19.1258 3.39097 19.2506C3.49314 19.3323 3.61634 19.3849 3.74364 19.4145C3.87094 19.444 4.00252 19.4512 4.13315 19.4484C4.62952 19.4378 5.11043 19.2865 5.59064 19.16C5.87522 19.0851 6.1619 19.0186 6.45003 18.9588C7.47306 18.7486 8.61485 18.8325 9.56455 18.9707C9.88621 19.0194 10.2056 19.0832 10.5217 19.16C11.0169 19.2804 11.5104 19.4338 12.0197 19.4484C12.1538 19.4522 12.289 19.4463 12.4199 19.4171C12.5508 19.3879 12.6778 19.3345 12.7826 19.2506C12.939 19.1256 13.0383 18.9371 13.075 18.7399C13.1117 18.5427 13.089 18.3375 13.0315 18.1454C12.9163 17.7613 12.6698 17.4335 12.4652 17.0887C12.3845 16.9527 12.3095 16.8132 12.2294 16.6769C12.8448 15.9837 13.3402 15.1821 13.6267 14.3016C13.9394 13.3405 13.9968 12.3057 13.8652 11.3034C13.7335 10.3011 13.4166 9.32936 12.9994 8.40909C12.4759 7.25525 12.0359 6.83834 11.717 5.82511C11.3724 4.72999 11.657 3.43412 11.4008 2.44086C11.3094 2.10307 11.1637 1.78061 10.9762 1.48542C10.7565 1.13954 10.4778 0.829516 10.1467 0.588897C9.61833 0.204976 8.96423 0.00731528 8.31185 0.000199996H8.31185Z" fill="#020204"/>
<path d="M6.42489 5.78167C6.35465 5.86995 6.30891 5.97605 6.28129 6.08555C6.25366 6.19505 6.24355 6.30826 6.23923 6.42113C6.23061 6.64686 6.24437 6.87693 6.1848 7.09478C6.12111 7.32769 5.97832 7.52946 5.83859 7.72615C5.59661 8.06676 5.35203 8.41623 5.23264 8.81696C5.16034 9.05964 5.13628 9.31668 5.16227 9.56862C4.8914 9.9676 4.65689 10.3914 4.46263 10.833C4.1682 11.5023 3.96616 12.215 3.89511 12.9431C3.80811 13.8346 3.9218 14.7515 4.27286 15.5752C4.52668 16.1708 4.90503 16.716 5.39289 17.1403C5.64095 17.356 5.91645 17.5402 6.21112 17.6854C7.23226 18.1888 8.49429 18.1898 9.49845 17.6531C10.0233 17.3726 10.4663 16.9625 10.8934 16.5475C11.1506 16.2975 11.4065 16.0417 11.6027 15.7412C11.9804 15.1627 12.112 14.4596 12.1937 13.773C12.3367 12.5724 12.3413 11.3042 11.8164 10.2157C11.6357 9.84094 11.3949 9.4954 11.1062 9.19637C11.0293 8.67252 10.8775 8.15979 10.6569 7.67872C10.4978 7.33166 10.3033 7.00131 10.1555 6.64927C10.0948 6.50474 10.042 6.35675 9.97467 6.21523C9.9073 6.0737 9.82421 5.93752 9.71124 5.82909C9.59555 5.71807 9.4514 5.63936 9.29936 5.58899C9.14732 5.53863 8.98728 5.51581 8.82737 5.50774C8.50754 5.49161 8.18708 5.53356 7.8671 5.52082C7.61237 5.51068 7.35844 5.46591 7.10395 5.48097C6.97671 5.48851 6.84949 5.51131 6.73139 5.5594C6.61329 5.60749 6.50439 5.68174 6.42489 5.78167" fill="#FDFDFB"/>
<path d="M12.6272 9.9312C13.0357 10.2607 13.2948 10.7583 13.3751 11.2779C13.4377 11.6831 13.397 12.0989 13.3059 12.4986C13.2148 12.8984 13.0742 13.2847 12.9346 13.6701C12.8789 13.8238 12.823 13.979 12.8009 14.141C12.7788 14.303 12.7928 14.4745 12.8707 14.6181C12.9599 14.7828 13.1266 14.8962 13.3057 14.9496C13.4826 15.0023 13.6737 15.0012 13.8527 14.9564C14.0317 14.9117 14.3331 14.8537 14.4789 14.7402C14.8491 14.4518 14.937 13.9512 15.0247 13.5115C15.1162 13.053 15.0715 12.5723 14.9911 12.1091C14.8814 11.4775 14.6969 10.8602 14.4621 10.2639C14.2894 9.82532 14.0681 9.40604 13.8049 9.01706C13.5466 8.63543 13.1801 8.33755 12.9094 7.96443C12.8153 7.8348 12.7022 7.69974 12.6098 7.56867C12.4105 7.28606 12.4557 7.33878 12.3321 7.15586C12.2424 7.02314 12.1008 6.97754 11.9518 6.91949C11.8027 6.86144 11.6354 6.84434 11.4815 6.88777C11.2787 6.94502 11.113 7.10531 11.0249 7.29725C10.9367 7.48919 10.9213 7.70948 10.9556 7.91799C10.9999 8.18697 11.1225 8.43656 11.2608 8.67127C11.417 8.93634 11.5979 9.19149 11.8338 9.38855C12.0799 9.5942 12.3776 9.7298 12.6272 9.9312" fill="#020204"/>
<path d="M4.93275 7.88354C4.45796 8.42462 3.96934 8.94837 3.70128 9.53334C3.56862 9.83047 3.50589 10.1532 3.41499 10.4657C3.31175 10.8207 3.17158 11.1639 3.0142 11.4982C2.86888 11.807 2.70879 12.1084 2.54842 12.4095C2.43174 12.6286 2.31314 12.8526 2.27268 13.0976C2.24071 13.2913 2.25936 13.4911 2.30851 13.6811C2.35766 13.8711 2.4367 14.0521 2.52585 14.2268C2.90626 14.9724 3.47702 15.6152 4.15309 16.1069C4.45989 16.33 4.78854 16.523 5.13328 16.6809C5.32006 16.7664 5.51681 16.8427 5.7221 16.8463C5.82475 16.8481 5.92845 16.8311 6.02244 16.7897C6.11643 16.7483 6.20037 16.6817 6.25621 16.5953C6.32486 16.4891 6.34817 16.3571 6.33439 16.2313C6.3206 16.1054 6.27163 15.9854 6.20596 15.8772C6.04553 15.6132 5.79212 15.4221 5.54837 15.2327C5.02207 14.8238 4.51298 14.3925 4.02582 13.9374C3.88827 13.8089 3.75071 13.6763 3.6546 13.5143C3.56101 13.3565 3.51044 13.1768 3.47619 12.9964C3.38224 12.5017 3.40632 11.981 3.57417 11.5063C3.63983 11.3206 3.72662 11.1433 3.81033 10.965C3.95541 10.6561 4.09274 10.3412 4.28352 10.0583C4.52101 9.7062 4.83848 9.40794 5.03207 9.02974C5.19546 8.71052 5.26163 8.35162 5.32486 7.99844C5.37432 7.72212 5.4692 7.45147 5.51746 7.17493C5.42307 7.35439 5.11887 7.64908 4.93275 7.88354V7.88354Z" fill="#020204"/>
<path d="M16.5262 17.4153C16.3501 17.625 16.1055 17.7634 15.8619 17.8879C15.4465 18.1003 15.016 18.2866 14.6255 18.5421C14.3638 18.7133 14.1223 18.9142 13.8965 19.1307C13.7033 19.3158 13.5202 19.5136 13.3036 19.6705C13.0851 19.8287 12.8324 19.9434 12.5658 19.9835C12.2416 20.0323 11.9066 19.9692 11.606 19.8378C11.3954 19.7458 11.1928 19.6141 11.0715 19.4184C10.9497 19.222 10.9219 18.9816 10.9216 18.7503C10.9211 18.3412 10.9967 17.9364 11.0679 17.5335C11.127 17.1988 11.1833 16.8633 11.2196 16.5253C11.2856 15.9106 11.2851 15.2897 11.2411 14.673C11.2337 14.5697 11.2251 14.4654 11.2405 14.363C11.2559 14.2606 11.2979 14.1586 11.3762 14.0911C11.4484 14.0287 11.5454 14.0011 11.6406 13.9958C11.7358 13.9905 11.8308 14.0057 11.9252 14.0195C12.1475 14.0521 12.3717 14.0778 12.589 14.1351C12.7261 14.1713 12.8597 14.2199 12.9966 14.257C13.225 14.319 13.4642 14.3487 13.6992 14.3211C13.9522 14.2914 14.198 14.1961 14.4526 14.2023C14.5571 14.2048 14.6608 14.2246 14.7605 14.2561C14.8622 14.2883 14.9625 14.3344 15.0372 14.4106C15.0941 14.4686 15.1336 14.5416 15.1634 14.6173C15.2076 14.7299 15.2315 14.85 15.2417 14.9707C15.2507 15.0776 15.2493 15.1857 15.2695 15.2911C15.3027 15.4644 15.3935 15.6225 15.5064 15.758C15.6192 15.8934 15.754 16.0085 15.8887 16.1221C16.0229 16.2352 16.1579 16.3479 16.3027 16.4471C16.3706 16.4937 16.4407 16.5373 16.5052 16.5886C16.5697 16.6398 16.6291 16.6994 16.6694 16.7714C16.7241 16.869 16.7408 16.9873 16.7055 17.0997C16.6702 17.212 16.606 17.3203 16.5262 17.4153V17.4153Z" fill="url(#paint0_linear)"/>
<path d="M2.72455 13.6725C2.83191 13.6279 2.95266 13.6198 3.06694 13.6409C3.18123 13.662 3.28922 13.7115 3.38535 13.7771C3.5776 13.9081 3.72018 14.0987 3.85675 14.2873C4.17035 14.7205 4.4722 15.1627 4.74582 15.6223C4.96776 15.9952 5.17163 16.3802 5.42809 16.73C5.5955 16.9584 5.7843 17.1703 5.95254 17.3981C6.12078 17.6258 6.26991 17.8731 6.34451 18.1465C6.44145 18.5017 6.40389 18.8933 6.23532 19.2205C6.11673 19.4507 5.93483 19.6482 5.71359 19.7819C5.49235 19.9157 5.23226 19.9849 4.97411 19.9752C4.5637 19.9597 4.18878 19.754 3.80723 19.6016C3.02985 19.291 2.18549 19.1936 1.38422 18.9518C1.13796 18.8774 0.895826 18.7895 0.64786 18.7211C0.53769 18.6907 0.425765 18.664 0.321714 18.6167C0.217664 18.5693 0.120368 18.4989 0.0624947 18.4001C0.0177629 18.3237 -0.00116623 18.2338 5.53882e-05 18.1452C0.00127707 18.0567 0.0219309 17.9692 0.0519981 17.8859C0.112133 17.7193 0.209291 17.5686 0.274866 17.4041C0.381938 17.1355 0.401175 16.8393 0.386735 16.5504C0.372296 16.2615 0.325599 15.9752 0.30588 15.6866C0.297074 15.5577 0.293753 15.4272 0.318284 15.3004C0.342815 15.1736 0.397208 15.0497 0.489971 14.9601C0.575493 14.8775 0.688993 14.8284 0.805222 14.8041C0.92145 14.7798 1.04119 14.7787 1.15989 14.7814C1.27859 14.7841 1.39756 14.7904 1.51589 14.7807C1.63422 14.7709 1.75308 14.7443 1.85616 14.6852C1.95416 14.629 2.03433 14.5455 2.10075 14.454C2.16716 14.3624 2.22084 14.2624 2.27587 14.1635C2.3309 14.0647 2.38786 13.9662 2.4599 13.879C2.53194 13.7918 2.62028 13.7159 2.72455 13.6725" fill="url(#paint1_linear)"/>
<path d="M14.7138 13.9626C14.6866 13.8883 14.6388 13.8224 14.5802 13.7694C14.5217 13.7163 14.4526 13.6756 14.38 13.6447C14.2347 13.5829 14.0765 13.5598 13.9214 13.5305C13.7751 13.503 13.63 13.4695 13.4832 13.4446C13.3308 13.4186 13.1733 13.402 13.0224 13.4361C12.8904 13.466 12.7684 13.5343 12.6685 13.6259C12.5687 13.7174 12.4907 13.8317 12.4346 13.9551C12.3358 14.1725 12.3047 14.4173 12.3236 14.6555C12.3376 14.8328 12.3823 15.0154 12.4987 15.1496C12.5927 15.258 12.7261 15.3257 12.8635 15.3664C13.1001 15.4367 13.3579 15.433 13.5925 15.356C13.9796 15.226 14.3225 14.9673 14.5544 14.6303C14.6308 14.5192 14.6962 14.3982 14.7258 14.2665C14.7483 14.1662 14.7492 14.0591 14.7138 13.9626" fill="#020204"/>
<path d="M6.52784 2.9909C6.40829 2.99743 6.29394 3.05277 6.20646 3.13475C6.11897 3.21674 6.05734 3.32406 6.01943 3.43796C5.9436 3.66576 5.96066 3.91272 5.9779 4.15225C5.99351 4.36915 6.00948 4.59022 6.09046 4.79195C6.13095 4.89281 6.1878 4.98787 6.26366 5.06555C6.33952 5.14323 6.43495 5.20302 6.54011 5.22945C6.6387 5.25423 6.74404 5.2491 6.84102 5.21854C6.93799 5.18798 7.02654 5.13244 7.0992 5.06114C7.20519 4.95712 7.27663 4.82105 7.31759 4.6781C7.35854 4.53515 7.37022 4.38513 7.36809 4.23641C7.36542 4.0503 7.34118 3.86353 7.28313 3.68674C7.22507 3.50996 7.13238 3.34317 7.00302 3.20971C6.94038 3.14507 6.86892 3.08818 6.78832 3.0483C6.70771 3.00842 6.61759 2.986 6.52784 2.9909Z" fill="url(#paint2_radial)"/>
<path d="M6.23951 3.98393C6.21454 4.13512 6.21363 4.29376 6.26545 4.43793C6.29967 4.53313 6.3561 4.6195 6.42468 4.69372C6.46959 4.74232 6.52056 4.78648 6.58013 4.81512C6.63971 4.84376 6.70873 4.85594 6.7728 4.83981C6.83195 4.82491 6.88367 4.78671 6.92183 4.73901C6.96 4.69131 6.98544 4.63446 7.00357 4.57606C7.0571 4.40366 7.0485 4.21509 6.99536 4.04257C6.95664 3.91687 6.89251 3.79563 6.79219 3.71087C6.74432 3.67044 6.6883 3.63876 6.62741 3.62425C6.56652 3.60974 6.50063 3.61314 6.44365 3.63911C6.3804 3.66793 6.33145 3.72279 6.29939 3.78462C6.26734 3.84644 6.25087 3.91518 6.23951 3.98393" fill="#020204"/>
<g filter="url(#filter0_f)">
<path d="M6.55846 3.8747C6.5747 3.91736 6.62922 3.93285 6.65915 3.96727C6.68822 4.0007 6.71871 4.03531 6.73467 4.07667C6.7652 4.15586 6.70454 4.27321 6.76823 4.32914C6.78822 4.3467 6.82829 4.34708 6.84794 4.32914C6.92482 4.25898 6.90774 4.11745 6.87731 4.01776C6.84968 3.9273 6.78149 3.84162 6.69746 3.79861C6.65861 3.77873 6.60008 3.7622 6.56685 3.79054C6.54544 3.80881 6.54844 3.84836 6.55846 3.8747Z" fill="url(#paint3_linear)"/>
</g>
<g filter="url(#filter1_f)">
<path d="M7.01998 2.85737C7.18804 3.01526 7.31298 3.21013 7.39756 3.41679C7.3606 3.18892 7.30201 3.00586 7.15423 2.85737C7.06352 2.77215 6.96048 2.69728 6.84377 2.64471C6.74166 2.5987 6.62806 2.57012 6.56313 2.56893C6.49821 2.56775 6.48243 2.5692 6.46909 2.56983C6.45575 2.57044 6.4451 2.57093 6.48734 2.57574C6.52958 2.58055 6.62385 2.60611 6.72504 2.6517C6.82623 2.69728 6.92927 2.77215 7.01998 2.85737Z" fill="url(#paint4_linear)"/>
</g>
<path d="M8.64342 2.99099C8.45678 3.1196 8.30037 3.299 8.22389 3.51276C8.12749 3.78217 8.16443 4.08372 8.25745 4.35432C8.35273 4.63149 8.51211 4.89568 8.75279 5.06206C8.87313 5.14525 9.01244 5.2023 9.15758 5.21951C9.30273 5.23671 9.45356 5.21312 9.58318 5.14539C9.74113 5.06285 9.8616 4.91832 9.9364 4.7562C10.0112 4.59408 10.043 4.41486 10.0531 4.2365C10.0658 4.00925 10.0436 3.77826 9.96915 3.56325C9.88824 3.3297 9.74159 3.11416 9.53466 2.97978C9.4312 2.91259 9.31369 2.86643 9.19159 2.84949C9.06949 2.83256 8.94291 2.84523 8.82802 2.89001C8.76254 2.91552 8.70132 2.9511 8.64342 2.99099" fill="url(#paint5_radial)"/>
<path d="M9.07371 3.5562C9.00353 3.56124 8.93514 3.58527 8.8756 3.62287C8.81606 3.66047 8.76529 3.71142 8.72544 3.76957C8.64572 3.88588 8.61072 4.02855 8.60508 4.16957C8.60084 4.27543 8.61253 4.38267 8.64753 4.48262C8.68254 4.58257 8.74157 4.67509 8.82292 4.74266C8.90616 4.81181 9.01197 4.85332 9.11994 4.85853C9.2279 4.86373 9.33739 4.83249 9.4261 4.77056C9.49678 4.72122 9.55379 4.6533 9.59437 4.57712C9.63495 4.50095 9.6594 4.41666 9.67057 4.33102C9.69032 4.17975 9.66799 4.0218 9.59829 3.88621C9.52858 3.75061 9.4103 3.63894 9.26757 3.5862C9.20575 3.56336 9.13942 3.55148 9.07371 3.5562Z" fill="#020204"/>
<g filter="url(#filter2_f)">
<path d="M9.24109 4.01776C9.18296 4.04076 9.09096 4.0263 9.06547 4.08352C9.05038 4.11742 9.0717 4.17323 9.10598 4.18724C9.17528 4.21556 9.28265 4.16427 9.31063 4.09466C9.32278 4.06443 9.30436 4.0165 9.2744 4.00386C9.26331 3.99919 9.25227 4.01334 9.24109 4.01776V4.01776Z" fill="#141413"/>
</g>
<g filter="url(#filter3_f)">
<path d="M9.50751 4.16914C9.58545 4.09096 9.45205 3.88371 9.34808 3.79885C9.27278 3.73738 9.05336 3.67305 9.0628 3.73994C9.07224 3.80683 9.17086 3.89253 9.23697 3.9579C9.31835 4.03838 9.47049 4.20626 9.50751 4.16914Z" fill="url(#paint6_linear)"/>
</g>
<g filter="url(#filter4_f)">
<path d="M9.29143 2.4364C9.25941 2.47679 9.23048 2.52071 9.20752 2.56895C9.3516 2.60008 9.48939 2.65955 9.61237 2.74147C9.85034 2.89997 10.031 3.13172 10.1578 3.38947C10.1874 3.35661 10.2143 3.32135 10.2375 3.28217C10.1101 3.01369 9.92576 2.77084 9.6795 2.60682C9.5612 2.52802 9.42948 2.46855 9.29143 2.4364V2.4364Z" fill="url(#paint7_linear)"/>
</g>
<path d="M7.08949 4.57305C7.20812 4.4393 7.28927 4.27612 7.40324 4.13835C7.46023 4.06947 7.52598 4.00671 7.60339 3.96217C7.6808 3.91764 7.77067 3.89208 7.85958 3.8998C7.95855 3.9084 8.05119 3.95786 8.12365 4.02602C8.19612 4.09418 8.24984 4.18021 8.29272 4.27009C8.33378 4.35615 8.36641 4.44785 8.42557 4.52256C8.48869 4.60227 8.57724 4.65668 8.65723 4.71934C8.69722 4.75067 8.73559 4.78459 8.76721 4.8244C8.79882 4.86422 8.82356 4.91031 8.83373 4.96017C8.84405 5.01081 8.83891 5.06419 8.8213 5.11276C8.80369 5.16134 8.77386 5.20512 8.73674 5.24097C8.66251 5.31268 8.5613 5.35135 8.45926 5.36584C8.25516 5.3948 8.04881 5.3338 7.84276 5.33948C7.63421 5.34523 7.4305 5.41917 7.22201 5.41153C7.11777 5.4077 7.01204 5.38216 6.92637 5.32245C6.88354 5.2926 6.84622 5.25442 6.81925 5.20964C6.79228 5.16487 6.77584 5.11344 6.77409 5.06116C6.77241 5.01128 6.78402 4.96146 6.80389 4.9157C6.82377 4.86994 6.85173 4.82806 6.88325 4.78943C6.94627 4.71217 7.02334 4.64763 7.08949 4.57305" fill="url(#paint8_radial)"/>
<path d="M5.95825 5.86353C5.96238 5.88341 5.96983 5.9026 5.98021 5.92005C5.99804 5.95003 6.0241 5.97433 6.05225 5.99487C6.0804 6.01541 6.11084 6.03254 6.14031 6.05112C6.29696 6.14988 6.42461 6.28871 6.53801 6.43534C6.69015 6.63208 6.82476 6.8504 7.02798 6.99339C7.17148 7.09437 7.34318 7.15194 7.5176 7.16952C7.72242 7.19015 7.92974 7.157 8.12721 7.09869C8.31022 7.04465 8.48721 6.96878 8.64959 6.86834C8.95827 6.67741 9.21608 6.39756 9.55646 6.27204C9.63077 6.24464 9.70811 6.22504 9.77975 6.19123C9.85139 6.15743 9.91879 6.10681 9.95301 6.0352C9.9859 5.96636 9.98462 5.88691 9.99533 5.81134C10.0068 5.7305 10.0325 5.65233 10.0466 5.57191C10.0607 5.49148 10.0624 5.40546 10.0277 5.33158C9.99901 5.27039 9.94681 5.22198 9.88677 5.19122C9.82672 5.16046 9.75916 5.14649 9.69182 5.14317C9.55713 5.13654 9.42415 5.17112 9.28986 5.18342C9.11201 5.19971 8.9329 5.17681 8.75438 5.18214C8.53231 5.18878 8.31348 5.23901 8.09157 5.24981C7.8384 5.26212 7.5858 5.22298 7.33254 5.21268C7.22286 5.20823 7.11238 5.20924 7.00418 5.22785C6.89598 5.24647 6.7897 5.2833 6.69936 5.34586C6.61133 5.40683 6.54122 5.48995 6.46038 5.56023C6.41996 5.59537 6.37651 5.6275 6.3284 5.65094C6.28028 5.67438 6.2272 5.68891 6.17373 5.68777C6.14623 5.68717 6.11796 5.6826 6.09175 5.69095C6.07537 5.69617 6.06084 5.70624 6.04855 5.71828C6.03626 5.73032 6.02608 5.74434 6.01648 5.75863C5.99416 5.79186 5.97465 5.82699 5.95825 5.86353" fill="url(#paint9_radial)"/>
<g filter="url(#filter5_f)">
<path d="M6.51643 5.30128C6.42656 5.35457 6.33999 5.41329 6.25481 5.47385C6.21073 5.50519 6.16526 5.53908 6.142 5.588C6.12552 5.62268 6.12175 5.662 6.12122 5.7004C6.1207 5.73881 6.12316 5.77742 6.11812 5.8155C6.11468 5.8415 6.10776 5.86708 6.10661 5.89329C6.10603 5.90639 6.10692 5.91964 6.11037 5.93229C6.11381 5.94495 6.11989 5.957 6.12886 5.96655C6.14044 5.97888 6.15624 5.98647 6.1724 5.99142C6.18856 5.99636 6.20534 5.9989 6.22178 6.00278C6.30063 6.02137 6.36925 6.06989 6.42947 6.12421C6.4897 6.17853 6.54378 6.23966 6.60661 6.29094C6.77692 6.42993 7.00201 6.48744 7.22155 6.49106C7.44109 6.49468 7.65815 6.4486 7.87236 6.40021C8.04059 6.3622 8.20899 6.32247 8.37079 6.26263C8.61934 6.1707 8.85012 6.03159 9.04998 5.8572C9.1406 5.77813 9.22566 5.69134 9.32738 5.62727C9.41739 5.57058 9.51819 5.53315 9.60973 5.47898C9.61791 5.47413 9.62606 5.46913 9.63337 5.46305C9.64068 5.45695 9.64718 5.44971 9.65142 5.44118C9.65875 5.42644 9.65876 5.40878 9.65403 5.39301C9.6493 5.37723 9.64018 5.36312 9.62986 5.3503C9.61845 5.33613 9.60547 5.32327 9.59167 5.31142C9.49606 5.22934 9.36635 5.1995 9.24089 5.18952C9.11543 5.17954 8.98845 5.18659 8.86432 5.16579C8.74761 5.14624 8.63654 5.10259 8.52387 5.06633C8.4056 5.02828 8.28472 4.99817 8.16213 4.97811C7.87384 4.93094 7.57698 4.93998 7.29101 4.9997C7.01864 5.05658 6.75593 5.15929 6.51643 5.30128" fill="#604405"/>
</g>
<path d="M6.48794 4.99652C6.35843 5.08394 6.24185 5.19061 6.14318 5.31195C6.08675 5.38135 6.03553 5.45675 6.00711 5.54165C5.98476 5.60843 5.97714 5.6791 5.96306 5.7481C5.95778 5.77395 5.95155 5.79989 5.95166 5.82628C5.95172 5.83947 5.95339 5.85273 5.95747 5.86527C5.96155 5.87781 5.96809 5.88964 5.9772 5.89916C5.99229 5.91491 6.01348 5.92346 6.03481 5.92786C6.05613 5.93226 6.07802 5.93292 6.09965 5.93538C6.1973 5.94652 6.28723 5.99409 6.36818 6.04998C6.44912 6.10587 6.52371 6.17086 6.60677 6.22354C6.79028 6.33995 7.00916 6.39174 7.22613 6.40012C7.4431 6.40851 7.65958 6.37546 7.87251 6.33282C8.04173 6.29893 8.21042 6.25871 8.37095 6.19523C8.61679 6.09802 8.83838 5.94836 9.05014 5.78981C9.14633 5.71779 9.24117 5.6435 9.32753 5.55988C9.35685 5.53149 9.3852 5.50201 9.41665 5.47602C9.44809 5.45003 9.48298 5.42743 9.52176 5.41492C9.58088 5.39584 9.64498 5.40131 9.70624 5.41158C9.75237 5.41932 9.7986 5.42969 9.84534 5.42783C9.86871 5.42689 9.8921 5.42283 9.91381 5.41411C9.93552 5.40539 9.95553 5.39188 9.97042 5.37378C9.98998 5.35001 9.99995 5.31895 10.0001 5.28813C10.0002 5.2573 9.99075 5.2268 9.97515 5.20024C9.94396 5.14711 9.89002 5.11116 9.83385 5.08612C9.75692 5.05182 9.67367 5.03486 9.59183 5.01504C9.34043 4.95416 9.09613 4.8642 8.86448 4.74885C8.74932 4.69151 8.63735 4.62796 8.52403 4.56705C8.40753 4.50442 8.28879 4.44424 8.16229 4.40578C7.87947 4.3198 7.57034 4.348 7.29117 4.44524C6.98106 4.55326 6.70064 4.74572 6.48794 4.99651V4.99652" fill="url(#paint10_linear)"/>
<g opacity="0.8" filter="url(#filter6_f)">
<path d="M7.17167 4.61393C7.11205 4.5945 7.01342 4.69994 7.04561 4.75389C7.05444 4.76871 7.08151 4.7875 7.09974 4.77745C7.12721 4.7623 7.14968 4.70813 7.17944 4.6869C7.19932 4.67272 7.19486 4.62149 7.17167 4.61393Z" fill="url(#paint11_radial)"/>
</g>
<g filter="url(#filter7_f)">
<path d="M10.0186 5.40214C10.0151 5.43339 10.0067 5.46433 9.99386 5.4932C9.981 5.52207 9.96394 5.5483 9.94366 5.5704C9.92338 5.59249 9.90027 5.61002 9.87566 5.62198C9.85106 5.63393 9.82543 5.64009 9.80024 5.64009C9.74937 5.64009 9.70338 5.61502 9.6724 5.57039C9.64142 5.52577 9.62797 5.46525 9.63503 5.40214C9.63852 5.37089 9.64694 5.33995 9.6598 5.31108C9.67267 5.28221 9.68973 5.25597 9.71001 5.23388C9.73029 5.21178 9.75339 5.19426 9.778 5.1823C9.80261 5.17034 9.82824 5.16418 9.85343 5.16418C9.87862 5.16418 9.90287 5.17034 9.92481 5.1823C9.94674 5.19426 9.96593 5.21178 9.98127 5.23388C9.99661 5.25597 10.0078 5.28221 10.0142 5.31108C10.0206 5.33995 10.0221 5.37089 10.0186 5.40214V5.40214Z" fill="url(#paint12_linear)"/>
</g>
<defs>
<filter id="filter0_f" x="5.52553" y="2.75014" width="2.40272" height="2.61756" filterUnits="userSpaceOnUse" color-interpolation-filters="sRGB">
<feFlood flood-opacity="0" result="BackgroundImageFix"/>
<feBlend mode="normal" in="SourceGraphic" in2="BackgroundImageFix" result="shape"/>
<feGaussianBlur stdDeviation="0.512624" result="effect1_foregroundBlur"/>
</filter>
<filter id="filter1_f" x="6.18777" y="2.29897" width="1.4793" height="1.38733" filterUnits="userSpaceOnUse" color-interpolation-filters="sRGB">
<feFlood flood-opacity="0" result="BackgroundImageFix"/>
<feBlend mode="normal" in="SourceGraphic" in2="BackgroundImageFix" result="shape"/>
<feGaussianBlur stdDeviation="0.134754" result="effect1_foregroundBlur"/>
</filter>
<filter id="filter2_f" x="8.56273" y="3.50511" width="1.24951" height="1.18789" filterUnits="userSpaceOnUse" color-interpolation-filters="sRGB">
<feFlood flood-opacity="0" result="BackgroundImageFix"/>
<feBlend mode="normal" in="SourceGraphic" in2="BackgroundImageFix" result="shape"/>
<feGaussianBlur stdDeviation="0.248911" result="effect1_foregroundBlur"/>
</filter>
<filter id="filter3_f" x="8.02354" y="2.67259" width="2.5463" height="2.54079" filterUnits="userSpaceOnUse" color-interpolation-filters="sRGB">
<feFlood flood-opacity="0" result="BackgroundImageFix"/>
<feBlend mode="normal" in="SourceGraphic" in2="BackgroundImageFix" result="shape"/>
<feGaussianBlur stdDeviation="0.519479" result="effect1_foregroundBlur"/>
</filter>
<filter id="filter4_f" x="8.91252" y="2.1414" width="1.61996" height="1.54307" filterUnits="userSpaceOnUse" color-interpolation-filters="sRGB">
<feFlood flood-opacity="0" result="BackgroundImageFix"/>
<feBlend mode="normal" in="SourceGraphic" in2="BackgroundImageFix" result="shape"/>
<feGaussianBlur stdDeviation="0.1475" result="effect1_foregroundBlur"/>
</filter>
<filter id="filter5_f" x="4.59002" y="3.43157" width="6.58371" height="4.57612" filterUnits="userSpaceOnUse" color-interpolation-filters="sRGB">
<feFlood flood-opacity="0" result="BackgroundImageFix"/>
<feBlend mode="normal" in="SourceGraphic" in2="BackgroundImageFix" result="shape"/>
<feGaussianBlur stdDeviation="0.758214" result="effect1_foregroundBlur"/>
</filter>
<filter id="filter6_f" x="6.81852" y="4.39079" width="0.594296" height="0.610281" filterUnits="userSpaceOnUse" color-interpolation-filters="sRGB">
<feFlood flood-opacity="0" result="BackgroundImageFix"/>
<feBlend mode="normal" in="SourceGraphic" in2="BackgroundImageFix" result="shape"/>
<feGaussianBlur stdDeviation="0.110393" result="effect1_foregroundBlur"/>
</filter>
<filter id="filter7_f" x="8.95005" y="4.48094" width="1.75378" height="1.8424" filterUnits="userSpaceOnUse" color-interpolation-filters="sRGB">
<feFlood flood-opacity="0" result="BackgroundImageFix"/>
<feBlend mode="normal" in="SourceGraphic" in2="BackgroundImageFix" result="shape"/>
<feGaussianBlur stdDeviation="0.341623" result="effect1_foregroundBlur"/>
</filter>
<linearGradient id="paint0_linear" x1="11.7502" y1="19.767" x2="14.9917" y2="14.527" gradientUnits="userSpaceOnUse">
<stop stop-color="#C18E30"/>
<stop offset="1" stop-color="#EFA203"/>
</linearGradient>
<linearGradient id="paint1_linear" x1="0.913466" y1="19.7298" x2="4.27258" y2="14.065" gradientUnits="userSpaceOnUse">
<stop stop-color="#C18E30"/>
<stop offset="1" stop-color="#EFA203"/>
</linearGradient>
<radialGradient id="paint2_radial" cx="0" cy="0" r="1" gradientUnits="userSpaceOnUse" gradientTransform="translate(6.68659 4.01668) rotate(-2.41718) scale(0.798156 1.2245)">
<stop stop-color="#FEFEFC"/>
<stop offset="0.757339" stop-color="#FEFEFC"/>
<stop offset="1" stop-color="#D4D4D4"/>
</radialGradient>
<linearGradient id="paint3_linear" x1="6.51559" y1="3.64415" x2="6.90894" y2="4.34534" gradientUnits="userSpaceOnUse">
<stop stop-color="#757574" stop-opacity="0"/>
<stop offset="0.26291" stop-color="#757574"/>
<stop offset="0.5" stop-color="#757574"/>
<stop offset="1" stop-color="#757574" stop-opacity="0"/>
</linearGradient>
<linearGradient id="paint4_linear" x1="6.46048" y1="2.54016" x2="7.3625" y2="3.40629" gradientUnits="userSpaceOnUse">
<stop stop-color="#646464" stop-opacity="0"/>
<stop offset="0.306283" stop-color="#646464" stop-opacity="0.582524"/>
<stop offset="0.47" stop-color="#646464"/>
<stop offset="0.72834" stop-color="#646464" stop-opacity="0.257282"/>
<stop offset="1" stop-color="#646464" stop-opacity="0"/>
</linearGradient>
<radialGradient id="paint5_radial" cx="0" cy="0" r="1" gradientUnits="userSpaceOnUse" gradientTransform="translate(9.1454 4.01677) rotate(-1.81538) scale(1.06261 1.22498)">
<stop stop-color="#FEFEFC"/>
<stop offset="0.757339" stop-color="#FEFEFC"/>
<stop offset="1" stop-color="#D4D4D4"/>
</radialGradient>
<linearGradient id="paint6_linear" x1="9.13099" y1="3.69164" x2="9.58347" y2="4.22589" gradientUnits="userSpaceOnUse">
<stop stop-color="#949494" stop-opacity="0.392157"/>
<stop offset="0.5" stop-color="#949494"/>
<stop offset="1" stop-color="#949494" stop-opacity="0.392157"/>
</linearGradient>
<linearGradient id="paint7_linear" x1="9.23126" y1="2.46581" x2="10.1892" y2="3.36749" gradientUnits="userSpaceOnUse">
<stop stop-color="#646464" stop-opacity="0"/>
<stop offset="0.306283" stop-color="#646464" stop-opacity="0.582524"/>
<stop offset="0.47" stop-color="#646464"/>
<stop offset="0.72834" stop-color="#646464" stop-opacity="0.257282"/>
<stop offset="1" stop-color="#646464" stop-opacity="0"/>
</linearGradient>
<radialGradient id="paint8_radial" cx="0" cy="0" r="1" gradientUnits="userSpaceOnUse" gradientTransform="translate(7.55475 4.69734) rotate(-36.0893) scale(0.891665 0.810066)">
<stop stop-color="#020204"/>
<stop offset="0.734482" stop-color="#020204"/>
<stop offset="1" stop-color="#5C5C5C"/>
</radialGradient>
<radialGradient id="paint9_radial" cx="0" cy="0" r="1" gradientUnits="userSpaceOnUse" gradientTransform="translate(8.49961 5.51629) rotate(-22.488) scale(2.11601 1.48898)">
<stop stop-color="#D2940A"/>
<stop offset="0.751437" stop-color="#D89C08"/>
<stop offset="0.865791" stop-color="#B67E07"/>
<stop offset="1" stop-color="#946106"/>
</radialGradient>
<linearGradient id="paint10_linear" x1="6.03264" y1="5.41123" x2="9.82389" y2="5.38166" gradientUnits="userSpaceOnUse">
<stop stop-color="#AD780A"/>
<stop offset="0.119729" stop-color="#D89E08"/>
<stop offset="0.255145" stop-color="#EDB80B"/>
<stop offset="0.391942" stop-color="#EBC80D"/>
<stop offset="0.527411" stop-color="#F5D838"/>
<stop offset="0.769067" stop-color="#F6D811"/>
<stop offset="1" stop-color="#F5CD31"/>
</linearGradient>
<radialGradient id="paint11_radial" cx="0" cy="0" r="1" gradientUnits="userSpaceOnUse" gradientTransform="translate(7.12457 4.67807) scale(0.103038 0.111111)">
<stop stop-color="#3A2903"/>
<stop offset="0.554728" stop-color="#735208"/>
<stop offset="1" stop-color="#AC8C04"/>
</radialGradient>
<linearGradient id="paint12_linear" x1="9.82176" y1="5.27278" x2="9.87974" y2="5.54151" gradientUnits="userSpaceOnUse">
<stop stop-color="#F5CE2D"/>
<stop offset="1" stop-color="#D79B08"/>
</linearGradient>
</defs>
</svg>
