<svg width="19" height="20" viewBox="0 0 19 20" fill="none" xmlns="http://www.w3.org/2000/svg">
<path d="M18.1819 6.65C18.1819 16.9 9.09095 20 9.09095 20C9.09095 20 3.66057e-05 16.9 3.66057e-05 6.65C3.66057e-05 5.4 0.101047 4.35 0.202057 3.5C0.353572 2.25 1.21216 1.25 2.42428 0.95C3.98994 0.5 6.46468 0 9.09095 0C11.7172 0 14.192 0.5 15.8081 0.95C17.0202 1.25 17.5758 2.25 17.9293 3.5C17.9798 4.35 18.1819 5.45 18.1819 6.65Z" fill="#5D4037"/>
<path d="M9.09091 1.5C11.5657 1.5 13.8889 2 15.404 2.4C16.0101 2.55 16.4141 3.05 16.5152 3.7C16.6162 4.65 16.6667 5.65 16.6667 6.65C16.6667 14.45 10.8586 17.6 9.09091 18.35C7.32323 17.55 1.51515 14.4 1.51515 6.65C1.51515 5.65 1.56566 4.65 1.66667 3.7C1.71717 3.05 2.17172 2.55 2.77778 2.4C4.29293 2 6.61616 1.5 9.09091 1.5ZM9.09091 0C6.46465 0 3.9899 0.5 2.37374 0.95C1.21212 1.25 0.30303 2.3 0.20202 3.5C0.10101 4.35 0 5.45 0 6.65C0 16.9 9.09091 20 9.09091 20C9.09091 20 18.1818 16.9 18.1818 6.65C18.1818 5.4 18.0808 4.35 17.9798 3.5C17.8283 2.25 16.9697 1.25 15.7576 0.95C14.1919 0.5 11.7172 0 9.09091 0Z" fill="#4CAF50"/>
<path d="M8.58594 12H9.59604V16H8.58594V12Z" fill="#DCEDC8"/>
<path d="M9.09085 3C9.09085 3 6.06055 5.5 6.06055 9.5C6.06055 12.1 7.72721 13.75 8.5858 14.5L9.09085 13L9.5959 14.5C10.4545 13.75 12.1212 12.1 12.1212 9.5C12.1212 5.5 9.09085 3 9.09085 3Z" fill="#4CAF50"/>
<path d="M9.09085 3C9.09085 3 6.06055 5.5 6.06055 9.5C6.06055 12.1 7.72721 13.75 8.5858 14.5L9.09085 13V3Z" fill="#81C784"/>
</svg>
