<svg width="20" height="21" viewBox="0 0 20 21" fill="none" xmlns="http://www.w3.org/2000/svg">
<rect width="20" height="20" rx="10" fill="white"/>
<path d="M9.34506 0.00538286C9.30205 0.00929293 9.1652 0.0229782 9.04203 0.0327533C6.20137 0.288863 3.54057 1.82161 1.85533 4.17743C0.916911 5.4873 0.316716 6.97312 0.0899316 8.54693C0.00977517 9.09629 0 9.25856 0 10.0034C0 10.7483 0.00977517 10.9106 0.0899316 11.4599C0.633431 15.2155 3.30596 18.371 6.9306 19.5401C7.57967 19.7493 8.26393 19.892 9.04203 19.978C9.34506 20.0112 10.6549 20.0112 10.958 19.978C12.3011 19.8294 13.4389 19.4971 14.5611 18.9242C14.7331 18.8363 14.7664 18.8128 14.7429 18.7933C14.7273 18.7815 13.9941 17.7981 13.1144 16.6095L11.5152 14.4492L9.51124 11.4834C8.4086 9.85289 7.50147 8.51956 7.49365 8.51956C7.48583 8.5176 7.47801 9.83529 7.4741 11.4443C7.46823 14.2615 7.46628 14.3749 7.43109 14.4414C7.38025 14.5372 7.34115 14.5763 7.25904 14.6193C7.19648 14.6505 7.14174 14.6564 6.84653 14.6564H6.50831L6.41838 14.5997C6.35973 14.5626 6.31672 14.5137 6.28739 14.457L6.24633 14.369L6.25024 10.4492L6.25611 6.52738L6.31672 6.45113C6.348 6.41007 6.41447 6.35729 6.46139 6.33187C6.54154 6.29277 6.57282 6.28886 6.91105 6.28886C7.30987 6.28886 7.37634 6.3045 7.47996 6.41789C7.50929 6.44917 8.59433 8.08358 9.89247 10.0523C11.1906 12.021 12.9658 14.7092 13.8377 16.0288L15.4213 18.4277L15.5015 18.3749C16.2111 17.9135 16.9619 17.2566 17.5562 16.5723C18.8211 15.1198 19.6364 13.3485 19.9101 11.4599C19.9902 10.9106 20 10.7483 20 10.0034C20 9.25856 19.9902 9.09629 19.9101 8.54693C19.3666 4.79131 16.694 1.63588 13.0694 0.466771C12.4301 0.259537 11.7498 0.11682 10.9873 0.0307983C10.7996 0.011248 9.50733 -0.0102574 9.34506 0.00538286ZM13.4389 6.05426C13.5327 6.10118 13.609 6.19111 13.6364 6.28495C13.652 6.33578 13.6559 7.42278 13.652 9.87244L13.6461 13.3876L13.0264 12.4374L12.4047 11.4873V8.93207C12.4047 7.28006 12.4125 6.35142 12.4242 6.30646C12.4555 6.19698 12.5239 6.11095 12.6178 6.06012C12.6979 6.01907 12.7273 6.01516 13.0342 6.01516C13.3236 6.01516 13.3744 6.01907 13.4389 6.05426Z" fill="black"/>
</svg>
