<svg width="19" height="20" viewBox="0 0 19 20" fill="none" xmlns="http://www.w3.org/2000/svg">
<path d="M9.08644 20C8.81247 20 8.53932 19.9302 8.29868 19.7946L5.78989 18.3464C5.41593 18.1425 5.59885 18.0696 5.72242 18.0275C6.22157 17.8586 6.32319 17.8197 6.85568 17.5239C6.91177 17.4938 6.98494 17.5049 7.04347 17.5382L8.97018 18.6541C9.04091 18.6922 9.13847 18.6922 9.2035 18.6541L16.7161 14.4245C16.786 14.3856 16.8307 14.3063 16.8307 14.2262V5.76768C16.8307 5.6852 16.786 5.60747 16.7144 5.56544L9.20513 1.33896C9.13521 1.29931 9.04335 1.29931 8.97344 1.33896L1.46576 5.56702C1.3926 5.60747 1.34707 5.68757 1.34707 5.76768V14.227C1.34707 14.3079 1.3926 14.384 1.46495 14.4229L3.52336 15.5824C4.64037 16.1273 5.32407 15.4856 5.32407 14.8408V6.48941C5.32407 6.37123 5.42162 6.27844 5.54275 6.27844H6.49554C6.61423 6.27844 6.7126 6.37123 6.7126 6.48941V14.8408C6.7126 16.2946 5.90127 17.1289 4.48834 17.1289C4.05422 17.1289 3.71197 17.1289 2.75756 16.6697L0.787757 15.5634C0.301608 15.2889 0 14.7758 0 14.2262V5.76768C0 5.21805 0.301608 4.70571 0.787757 4.43208L8.30112 0.196889C8.7767 -0.0656297 9.40837 -0.0656297 9.87989 0.196889L17.3924 4.43208C17.8794 4.7065 18.1818 5.21885 18.1818 5.76768V14.2262C18.1818 14.7758 17.8794 15.2866 17.3924 15.5634L9.87989 19.7946C9.63925 19.9302 9.36691 20 9.08888 20H9.08644ZM11.4074 14.1722C8.11902 14.1722 7.43044 12.6994 7.43044 11.4646C7.43044 11.3472 7.52637 11.2536 7.64669 11.2536H8.61817C8.7263 11.2536 8.81735 11.3297 8.83361 11.4328C8.97994 12.3973 9.4165 12.885 11.4058 12.885C12.9878 12.885 13.6618 12.5353 13.6618 11.7168C13.6618 11.2441 13.4715 10.8943 11.0115 10.6588C8.95636 10.4605 7.68408 10.0172 7.68408 8.41349C7.68408 6.93434 8.96206 6.0524 11.1042 6.0524C13.5114 6.0524 14.7015 6.86693 14.8528 8.61652C14.8584 8.676 14.8365 8.7339 14.795 8.77911C14.7536 8.82194 14.6967 8.84732 14.6357 8.84732H13.6601C13.5593 8.84732 13.4707 8.77752 13.4496 8.68156C13.2155 7.66638 12.6464 7.342 11.1034 7.342C9.37504 7.342 9.17424 7.9289 9.17424 8.36907C9.17424 8.90283 9.41162 9.05828 11.744 9.35887C14.0528 9.65629 15.1503 10.0782 15.1503 11.6605C15.1503 13.2578 13.7862 14.1722 11.4058 14.1722H11.4074Z" fill="#84BA41"/>
</svg>
