<svg width="23" height="20" viewBox="0 0 23 20" fill="none" xmlns="http://www.w3.org/2000/svg">
<path d="M11.1111 14.8479C4.87923 14.8479 0 12.7093 0 9.98747C0 7.26565 4.87923 5.12708 11.1111 5.12708C17.343 5.12708 22.2222 7.26565 22.2222 9.98747C22.2222 12.7093 17.343 14.8479 11.1111 14.8479ZM11.1111 6.09915C5.02415 6.09915 0.966184 8.09192 0.966184 9.98747C0.966184 11.883 5.02415 13.8758 11.1111 13.8758C17.1981 13.8758 21.256 11.883 21.256 9.98747C21.256 8.09192 17.1981 6.09915 11.1111 6.09915Z" fill="#61DAFB"/>
<path d="M6.81123 20C6.32813 20 5.94166 19.9028 5.55519 19.6598C3.18804 18.2989 3.81606 13.001 6.90784 7.55738C8.35712 5.02998 10.1446 2.8914 11.8837 1.53049C13.7677 0.0723723 15.4586 -0.365063 16.618 0.315392C17.8257 0.995848 18.2605 2.69699 17.9706 5.07858C17.6808 7.31436 16.7146 9.93898 15.2653 12.4664C13.8161 14.9938 12.0286 17.1324 10.2895 18.4933C9.03345 19.4654 7.82572 20 6.81123 20ZM15.4103 0.947244C14.6373 0.947244 13.6228 1.38468 12.5117 2.25955C10.8692 3.57186 9.17838 5.61323 7.77741 8.04342C4.73393 13.3413 4.44408 17.91 6.03828 18.8335C6.85953 19.3195 8.21219 18.8821 9.70978 17.7156C11.3523 16.4033 13.0431 14.3619 14.4441 11.9317C15.845 9.50154 16.7629 7.02274 17.0528 4.93277C17.2943 2.98861 17.0045 1.6277 16.1832 1.14166C15.9417 1.04445 15.7001 0.947244 15.4103 0.947244Z" fill="#61DAFB"/>
<path d="M15.4587 20C13.0432 20 9.56495 17.0352 6.95626 12.4178C3.81616 6.97414 3.18814 1.6763 5.55529 0.31539C7.92244 -1.04552 12.1736 2.11374 15.3137 7.55738C16.763 10.0848 17.7292 12.7094 18.0191 14.9452C18.3572 17.3268 17.8741 18.9793 16.6664 19.7084C16.2799 19.9028 15.8935 20 15.4587 20ZM6.03838 1.14166C4.44418 2.06513 4.73404 6.63391 7.77751 11.9317C10.821 17.2296 14.5891 19.757 16.1833 18.8335C17.0046 18.3475 17.2944 16.9866 17.0529 15.0424C16.763 12.9524 15.8451 10.4736 14.4442 8.04342C11.4007 2.74559 7.63259 0.218183 6.03838 1.14166Z" fill="#61DAFB"/>
<path d="M11.1116 11.9319C12.1788 11.9319 13.0439 11.0615 13.0439 9.98774C13.0439 8.91401 12.1788 8.04358 11.1116 8.04358C10.0443 8.04358 9.1792 8.91401 9.1792 9.98774C9.1792 11.0615 10.0443 11.9319 11.1116 11.9319Z" fill="#61DAFB"/>
</svg>
