<svg width="20" height="18" viewBox="0 0 20 18" fill="none" xmlns="http://www.w3.org/2000/svg">
<path d="M15.8185 5.43638C16.1441 3.85019 16.2139 2.63359 16.0035 1.75017C15.8784 1.22476 15.6495 0.796138 15.3016 0.486896C14.9343 0.160417 14.4699 0.000213058 13.9481 0.000213058C13.0872 0.000213058 12.1823 0.394658 11.2152 1.144C10.8207 1.44964 10.4113 1.81804 9.98614 2.24941C9.9523 2.20564 9.91405 2.16435 9.87143 2.12618C8.66937 1.04982 7.65734 0.381063 6.79175 0.12321C6.27706 -0.0301092 5.79384 -0.044716 5.3538 0.104086C4.8893 0.261156 4.51919 0.585842 4.25807 1.04062C3.82713 1.79118 3.71348 2.77741 3.87415 3.99516C3.93964 4.49152 4.05159 5.03221 4.20978 5.61805C4.1501 5.62529 4.09027 5.63858 4.03105 5.6583C2.5059 6.16615 1.42594 6.71228 0.772102 7.33641C0.383087 7.70775 0.129055 8.12116 0.0372257 8.57878C-0.0597019 9.0618 0.0348091 9.54628 0.295628 10.0007C0.725767 10.7502 1.51667 11.3413 2.64341 11.8095C3.09584 11.9975 3.60773 12.1677 4.17966 12.3209C4.15356 12.3801 4.13331 12.443 4.11977 12.5089C3.79422 14.0951 3.72436 15.3117 3.93479 16.1951C4.05995 16.7205 4.28876 17.1492 4.63668 17.4584C5.004 17.7849 5.46841 17.9451 5.99023 17.9451C6.85106 17.9451 7.75602 17.5506 8.72312 16.8013C9.12178 16.4924 9.5357 16.1194 9.96574 15.6821C10.01 15.7516 10.0643 15.8163 10.1286 15.8738C11.3306 16.9502 12.3427 17.6189 13.2083 17.8768C13.7229 18.0301 14.2062 18.0447 14.6462 17.8959C15.1107 17.7388 15.4808 17.4142 15.7419 16.9594C16.1729 16.2088 16.2865 15.2226 16.1259 14.0048C16.058 13.4905 15.9403 12.9286 15.7729 12.3182C15.8383 12.3116 15.904 12.2977 15.969 12.2761C17.4941 11.7682 18.5741 11.2221 19.2279 10.598C19.6169 10.2266 19.8709 9.8132 19.9628 9.35558C20.0597 8.87256 19.9652 8.38808 19.7044 7.93363C19.2742 7.18417 18.4833 6.59307 17.3566 6.12487C16.8907 5.93128 16.3617 5.75649 15.7691 5.59985C15.7902 5.54791 15.8068 5.4933 15.8185 5.43638Z" fill="#002C4B"/>
<path fill-rule="evenodd" clip-rule="evenodd" d="M8.46296 5.71765H11.5378C11.7264 5.71765 11.9005 5.81909 11.9943 5.98358L13.5346 8.68358C13.6277 8.84676 13.6277 9.04737 13.5346 9.21055L11.9943 11.9105C11.9005 12.075 11.7264 12.1765 11.5378 12.1765H8.46296C8.27442 12.1765 8.10029 12.075 8.00646 11.9105L6.46623 9.21055C6.37314 9.04737 6.37314 8.84676 6.46623 8.68358L8.00646 5.98358C8.10029 5.81909 8.27442 5.71765 8.46296 5.71765ZM11.1567 6.38222C11.3454 6.38222 11.5196 6.48377 11.6134 6.64839L12.7731 8.68382C12.866 8.84688 12.866 9.04725 12.7731 9.21031L11.6134 11.2457C11.5196 11.4104 11.3454 11.5119 11.1567 11.5119H8.84405C8.65541 11.5119 8.4812 11.4104 8.38741 11.2457L7.22771 9.21031C7.13481 9.04725 7.13481 8.84688 7.22771 8.68382L8.38741 6.64839C8.4812 6.48377 8.65541 6.38222 8.84405 6.38222H11.1567ZM10.7455 7.1091H9.25533C9.06689 7.1091 8.89283 7.21044 8.79896 7.3748L8.05163 8.68335C7.95836 8.84664 7.95836 9.04748 8.05163 9.21078L8.79896 10.5193C8.89283 10.6837 9.06689 10.785 9.25533 10.785H10.7455C10.9339 10.785 11.108 10.6837 11.2018 10.5193L11.9492 9.21078C12.0424 9.04748 12.0424 8.84664 11.9492 8.68335L11.2018 7.3748C11.108 7.21044 10.9339 7.1091 10.7455 7.1091ZM10.3495 7.80483C10.5378 7.80483 10.7118 7.90601 10.8057 8.07018L11.1563 8.683C11.2498 8.84647 11.2498 9.04765 11.1563 9.21112L10.8057 9.82395C10.7118 9.98811 10.5378 10.0893 10.3495 10.0893H9.65127C9.46297 10.0893 9.28902 9.98811 9.1951 9.82395L8.8445 9.21112C8.75097 9.04765 8.75097 8.84647 8.8445 8.683L9.1951 8.07018C9.28902 7.90601 9.46297 7.80483 9.65127 7.80483H10.3495ZM10.0005 8.49017C9.83795 8.49017 9.68796 8.57725 9.60676 8.71862C9.52557 8.85997 9.52557 9.03416 9.60676 9.17551C9.68796 9.31688 9.83795 9.40396 10.0003 9.40396C10.1628 9.40396 10.3128 9.31688 10.394 9.17551C10.4752 9.03416 10.4752 8.85997 10.394 8.71862C10.3128 8.57725 10.1628 8.49017 10.0005 8.49017ZM6.31592 8.94716H7.13358H6.31592Z" fill="#FFD94C"/>
<path fill-rule="evenodd" clip-rule="evenodd" d="M5.77473 10.4143C5.91277 10.335 6.08798 10.3844 6.16607 10.5246L6.21604 10.614C6.61643 11.3276 7.03356 12.0049 7.46741 12.6461C7.97975 13.4031 8.55596 14.1696 9.19602 14.9454C9.29649 15.0672 9.2826 15.2482 9.16478 15.3527L9.10042 15.4095C6.98382 17.2697 5.60817 17.6413 4.97345 16.5242C4.35261 15.4316 4.57729 13.4452 5.64748 10.5652C5.67122 10.5014 5.71625 10.448 5.77473 10.4143ZM14.793 12.6044C14.9459 12.5772 15.0921 12.6786 15.122 12.8323L15.1382 12.9162C15.6613 15.6701 15.293 17.047 14.0332 17.047C12.801 17.047 11.2325 15.8727 9.32763 13.524C9.28538 13.4719 9.26256 13.4065 9.26313 13.3392C9.26452 13.1803 9.39322 13.0526 9.5506 13.054L9.65099 13.0547C10.4532 13.0591 11.2331 13.0311 11.9906 12.9707C12.8851 12.8994 13.8193 12.7773 14.793 12.6044ZM15.5167 6.75655C15.5718 6.60733 15.7377 6.52906 15.8899 6.58047L15.9729 6.60869C18.693 7.54071 19.7265 8.56499 19.0735 9.68153C18.4347 10.7737 16.5773 11.5687 13.5012 12.0667C13.433 12.0778 13.363 12.0649 13.3034 12.0302C13.1628 11.9485 13.116 11.7697 13.1988 11.6309L13.2515 11.5423C13.6713 10.8335 14.0506 10.1281 14.3896 9.42609C14.79 8.59708 15.1657 7.70724 15.5167 6.75655ZM6.49875 5.93324C6.56697 5.9222 6.63696 5.93512 6.69653 5.96976C6.83713 6.05151 6.88397 6.23029 6.80115 6.36908L6.74847 6.4577C6.32869 7.16649 5.94931 7.87189 5.61031 8.57388C5.20997 9.40289 4.83429 10.2927 4.48327 11.2434C4.42817 11.3926 4.26225 11.4709 4.11002 11.4195L4.02707 11.3913C1.30695 10.4593 0.273411 9.43499 0.926466 8.31845C1.56525 7.22631 3.42267 6.43125 6.49875 5.93324ZM10.8995 2.59044C13.0161 0.730224 14.3918 0.358658 15.0265 1.47574C15.6473 2.56841 15.4227 4.55474 14.3525 7.43474C14.3287 7.49862 14.2837 7.55201 14.2252 7.58564C14.0872 7.66499 13.912 7.61562 13.8339 7.47536L13.7839 7.38597C13.3835 6.67238 12.9664 5.99503 12.5325 5.35392C12.0202 4.59682 11.444 3.83038 10.8039 3.05457C10.7035 2.93281 10.7173 2.75174 10.8352 2.64726L10.8995 2.59044ZM6.072 0.847046C7.30421 0.847046 8.87274 2.02139 10.7776 4.37007C10.8198 4.42216 10.8427 4.48756 10.8421 4.55489C10.8407 4.7138 10.712 4.84149 10.5546 4.84011L10.4542 4.83939C9.65201 4.835 8.87214 4.86299 8.11464 4.92338C7.22008 4.99468 6.28592 5.11679 5.31217 5.28971C5.15933 5.31685 5.01308 5.21553 4.98317 5.06177L4.96705 4.9779C4.44394 2.224 4.81225 0.847046 6.072 0.847046Z" fill="#FF4154"/>
</svg>
