<svg width="22" height="16" viewBox="0 0 22 16" fill="none" xmlns="http://www.w3.org/2000/svg">
<path d="M21.302 11.3351C21.2279 10.7122 20.9089 10.2289 20.4272 9.8501C19.8694 9.41185 19.2164 9.23135 18.5205 9.20263C17.9532 9.17939 17.3981 9.26416 16.8627 9.4597C16.7104 9.51508 16.5607 9.58072 16.407 9.64294C16.3866 9.60533 16.3648 9.56978 16.3471 9.53218C16.1893 9.2081 15.9988 8.89839 15.9573 8.52713C15.9274 8.26323 15.8907 7.99932 15.9532 7.73883C16.0131 7.48791 16.092 7.24109 16.1655 6.99291C16.2036 6.86505 16.177 6.79395 16.056 6.73652C16.0138 6.71669 15.9682 6.69891 15.9219 6.69208C15.624 6.649 15.3308 6.67362 15.0424 6.75771C14.9403 6.7878 14.8662 6.84523 14.8437 6.95872C14.8308 7.02367 14.8043 7.08589 14.7866 7.15016C14.7111 7.41749 14.658 7.6896 14.5363 7.94394C14.2308 8.58251 13.8832 9.19648 13.5261 9.80634C13.4873 9.87198 13.4472 9.93693 13.3982 10.0169C13.273 9.7537 13.1397 9.51782 13.0989 9.24024C13.0533 8.9271 13.0173 8.61465 13.0948 8.30356C13.1526 8.07179 13.2282 7.84412 13.2975 7.61576C13.3309 7.50705 13.3152 7.4503 13.2173 7.39287C13.1676 7.36416 13.1118 7.33818 13.056 7.32997C12.7472 7.28416 12.4431 7.30809 12.1459 7.40518C12.0534 7.43526 12.0051 7.49543 11.9765 7.59115C11.8935 7.87352 11.8228 8.16272 11.7064 8.43142C11.2343 9.5185 10.7493 10.6001 10.2643 11.6811C10.1629 11.9067 10.0446 12.1248 9.9303 12.3442C9.90105 12.4003 9.85955 12.4489 9.8235 12.5015C9.79425 12.4673 9.78336 12.4434 9.78336 12.4201C9.78404 12.2813 9.76772 12.1378 9.79425 12.0038C9.87384 11.5976 9.96567 11.1929 10.0629 10.7902C10.1425 10.4579 10.2357 10.1284 10.3248 9.79745C10.3548 9.68669 10.3555 9.58345 10.2759 9.49047C10.1432 9.33459 9.86567 9.3004 9.70105 9.42073C9.68337 9.43372 9.66228 9.44261 9.62827 9.46244C9.63439 9.40979 9.63779 9.37698 9.64255 9.34416C9.67724 9.09119 9.68405 8.83959 9.61534 8.59003C9.52895 8.27963 9.30923 8.10119 8.98883 8.11076C8.83918 8.11555 8.68272 8.14084 8.54463 8.19554C7.96301 8.42458 7.51609 8.83001 7.13583 9.31818C7.10114 9.36262 7.05556 9.40296 7.00726 9.42962C6.51544 9.70379 6.02158 9.97453 5.5284 10.2466C5.34405 10.3478 5.1597 10.4497 4.97943 10.5488C4.8325 10.4073 4.69849 10.261 4.54611 10.1366C4.08218 9.75643 3.61077 9.38586 3.14412 9.00983C2.73053 8.67687 2.32918 8.32954 2.02238 7.88856C1.79382 7.56038 1.64689 7.20144 1.63328 6.79532C1.6156 6.27844 1.76117 5.806 2.02307 5.3657C2.35843 4.80301 2.81488 4.35176 3.31758 3.94223C3.84886 3.50944 4.42367 3.1423 5.01957 2.80728C5.85288 2.33826 6.71067 1.92325 7.62969 1.64909C8.57252 1.36809 9.52827 1.20742 10.5146 1.31955C10.9024 1.3633 11.2786 1.45287 11.6248 1.64362C11.8894 1.78925 12.1064 1.98 12.2078 2.27878C12.3071 2.57277 12.3044 2.87018 12.235 3.16828C12.0949 3.77199 11.7656 4.2704 11.3513 4.71549C10.6725 5.445 9.84391 5.94137 8.9106 6.26955C8.37252 6.45894 7.8188 6.5779 7.25011 6.62576C6.78618 6.66473 6.33177 6.62371 5.89233 6.46099C5.60118 6.35364 5.34813 6.18887 5.14405 5.95026C5.10732 5.90719 5.06106 5.86138 4.99304 5.90103C4.92637 5.94001 4.91481 6.00427 4.93726 6.06854C4.97467 6.17588 5.00868 6.28664 5.06719 6.38236C5.21276 6.62234 5.42568 6.79668 5.65968 6.94641C6.10933 7.23357 6.61135 7.32997 7.13243 7.35253C7.92288 7.38672 8.69428 7.26844 9.45412 7.05512C10.5398 6.75088 11.4833 6.21349 12.2404 5.3657C12.871 4.66011 13.3207 3.86292 13.4173 2.90095C13.4642 2.43125 13.4145 1.97111 13.1955 1.54312C12.9581 1.07888 12.5812 0.758909 12.1302 0.521665C11.4745 0.175711 10.7656 0.0396547 10.0344 0C9.79017 0 9.54596 0 9.30175 0C8.41538 0.0430732 7.55894 0.230408 6.72632 0.534655C6.0964 0.765063 5.47806 1.02487 4.87808 1.3257C3.57132 1.98205 2.35435 2.76694 1.35506 3.85471C0.857116 4.39689 0.43536 4.99171 0.193191 5.69592C0.122445 5.9024 0.0789091 6.12119 0.0278903 6.3345C0.0238088 6.35228 0.043536 6.36937 0 6.38715C0 6.48765 0 6.58747 0 6.68798C0.043536 6.76523 0.0482978 6.84181 0.068025 6.91907C0.196592 7.42022 0.46121 7.85095 0.789091 8.2434C1.25642 8.80267 1.82171 9.25254 2.40809 9.67644C2.91623 10.0436 3.43186 10.4025 3.94205 10.7669C4.0298 10.8292 4.11075 10.9016 4.20599 10.9782C4.12436 11.0226 4.05565 11.0616 3.98491 11.0979C3.31146 11.4411 2.66386 11.826 2.0666 12.2923C1.70675 12.5733 1.35846 12.8721 1.11289 13.2618C0.717664 13.8894 0.577533 14.5581 0.872081 15.2719C0.958473 15.4804 1.08976 15.6609 1.27479 15.7935C1.33465 15.8366 1.402 15.8797 1.47206 15.8961C1.65165 15.9385 1.83532 15.9665 2.01762 16C2.18973 16 2.36115 16 2.53325 16C3.10398 15.9487 3.62301 15.7525 4.09171 15.4271C4.82502 14.9184 5.31888 14.2367 5.5318 13.3609C5.68621 12.7251 5.69234 12.0879 5.51071 11.4547C5.4937 11.3959 5.47262 11.3385 5.45017 11.2818C5.42772 11.225 5.40187 11.1696 5.37126 11.0985C5.76036 10.8736 6.15083 10.648 6.54061 10.4224C6.54673 10.4271 6.55217 10.4326 6.5583 10.4374C6.53721 10.5071 6.51476 10.5769 6.49503 10.648C6.35626 11.158 6.26375 11.677 6.29708 12.2061C6.33245 12.7702 6.48891 13.298 6.81747 13.7698C7.08277 14.1513 7.71608 14.1649 7.99839 13.7828C8.09838 13.6467 8.19566 13.5052 8.26844 13.3534C8.45892 12.9575 8.63578 12.5548 8.81741 12.1549C8.82557 12.1378 8.83237 12.1207 8.84938 12.0817C8.83645 12.2711 8.82081 12.4372 8.81401 12.6041C8.80312 12.8639 8.81809 13.1223 8.90652 13.3698C8.98203 13.5817 9.1106 13.7397 9.35208 13.767C9.5167 13.7862 9.64867 13.7103 9.76976 13.6139C9.95955 13.4635 10.1133 13.2782 10.2276 13.0669C10.5507 12.47 10.8826 11.8773 11.1758 11.2654C11.4928 10.6035 11.7697 9.92257 12.0642 9.24981C12.0806 9.21289 12.0949 9.17528 12.1132 9.13016C12.1826 9.40501 12.2316 9.6737 12.3207 9.92872C12.4241 10.2241 12.5527 10.5126 12.6928 10.7929C12.7588 10.9256 12.7513 11.0117 12.6595 11.1225C12.2758 11.5874 11.8989 12.0578 11.5214 12.5282C11.4377 12.6321 11.3547 12.7374 11.2854 12.8509C11.2432 12.9199 11.2153 13.0033 11.2037 13.084C11.1813 13.2378 11.2752 13.3855 11.4391 13.4211C11.5881 13.4532 11.7472 13.4655 11.8996 13.4539C12.4261 13.4149 12.9044 13.229 13.3275 12.9145C13.8751 12.5063 14.0513 11.9504 13.9186 11.2907C13.8826 11.1115 13.8193 10.9372 13.7574 10.7649C13.7295 10.6869 13.7281 10.6323 13.7785 10.5598C14.2166 9.93146 14.5907 9.26417 14.9383 8.58251C14.9519 8.55585 14.9662 8.5285 14.99 8.49979C15.1029 9.08982 15.2723 9.65798 15.5764 10.1735C15.4213 10.3239 15.2675 10.46 15.1288 10.6104C14.8227 10.9406 14.5574 11.3002 14.4193 11.7378C14.3601 11.9265 14.3138 12.1179 14.3404 12.3203C14.3819 12.6335 14.6369 12.8365 14.9431 12.7654C15.5981 12.6129 16.1641 12.3025 16.5777 11.7528C16.8559 11.383 16.8811 10.97 16.7648 10.5372C16.7328 10.4196 16.6947 10.3041 16.6539 10.1687C16.8158 10.1181 16.9736 10.0579 17.1362 10.0203C17.9831 9.82617 18.8205 9.86035 19.6361 10.1673C20.1123 10.3465 20.4973 10.6473 20.7252 11.1197C21.0041 11.6975 20.8497 12.2451 20.3082 12.6102C20.2579 12.6444 20.2 12.6711 20.1579 12.7134C20.132 12.7394 20.117 12.7921 20.1232 12.8276C20.1266 12.8488 20.1824 12.8748 20.2136 12.8748C20.3919 12.8734 20.5361 12.7798 20.6749 12.6834C21.0225 12.442 21.2517 12.1166 21.3061 11.6893C21.3075 11.677 21.2898 11.6653 21.3333 11.6537C21.3333 11.5587 21.3333 11.4643 21.3333 11.3693C21.2898 11.3577 21.3082 11.346 21.3068 11.3337L21.302 11.3351ZM4.73454 12.4906C4.67808 13.2529 4.33456 13.871 3.77267 14.3707C3.45635 14.6524 3.09446 14.8527 2.67202 14.9232C2.51897 14.9485 2.36251 14.9546 2.21354 14.891C2.00198 14.8001 1.95436 14.6114 1.95028 14.4097C1.94416 14.0891 2.05572 13.7992 2.20877 13.5236C2.40877 13.164 2.70195 12.8898 3.01487 12.6341C3.50805 12.2307 4.04341 11.8889 4.59101 11.5669C4.59985 11.5614 4.61074 11.5587 4.63251 11.5498C4.71686 11.8643 4.75767 12.1747 4.73386 12.4912L4.73454 12.4906ZM9.01332 9.17802C8.97318 9.42142 8.92353 9.66481 8.85278 9.90069C8.60789 10.717 8.29429 11.5088 7.95485 12.2889C7.89227 12.4331 7.80111 12.5651 7.72152 12.7018C7.70928 12.723 7.69091 12.7415 7.67323 12.7593C7.57527 12.857 7.4814 12.8516 7.43174 12.7237C7.37392 12.5753 7.33854 12.4167 7.30793 12.2595C7.28752 12.1542 7.29229 12.0434 7.28616 11.9354C7.29297 11.1676 7.52561 10.4688 7.92152 9.81933C8.08478 9.55132 8.26232 9.2963 8.53306 9.12606C8.61673 9.0741 8.70993 9.03239 8.80448 9.00504C8.9487 8.96402 9.03781 9.03171 9.014 9.17733L9.01332 9.17802ZM11.9323 12.9158C12.2819 12.5056 12.6309 12.0961 12.9812 11.6845C13.0248 12.1419 12.252 13.0546 11.9323 12.9158ZM15.2832 12.0879C15.209 12.1302 15.1281 12.1617 15.0519 12.2007C14.9825 12.2369 14.9594 12.2007 14.9573 12.1405C14.956 12.0995 14.9621 12.0571 14.973 12.0174C15.1145 11.5149 15.375 11.0869 15.7634 10.7382C15.7689 10.7328 15.7777 10.7307 15.7907 10.7239C15.975 11.2421 15.7621 11.8123 15.2825 12.0879H15.2832Z" fill="#C76494"/>
</svg>
