<svg width="20" height="20" viewBox="0 0 20 20" fill="none" xmlns="http://www.w3.org/2000/svg">
<rect x="4" y="8" width="15" height="11" fill="white"/>
<path d="M1.64737 0.0397053C0.864053 0.152243 0.176571 0.848309 0.047408 1.66108C-0.0150903 2.03204 -0.0150903 17.954 0.0432415 18.3333C0.172405 19.1586 0.859886 19.838 1.68903 19.9589C2.08902 20.0131 17.9136 20.0131 18.3136 19.9589C19.1552 19.8338 19.8385 19.1503 19.9594 18.3125C20.0135 17.9165 20.0135 2.07789 19.9594 1.68192C19.8385 0.844141 19.1511 0.15641 18.3136 0.0355358C17.9469 -0.0144806 2.00569 -0.0103111 1.64737 0.0397053ZM17.0261 9.35116C17.2303 9.3845 17.5261 9.45119 17.6803 9.49704L17.9594 9.58457V10.514V11.4435L17.6553 11.2851C16.672 10.7683 15.247 10.7141 14.6928 11.1726C14.4262 11.3935 14.3429 11.727 14.4845 12.0229C14.6179 12.3021 15.1053 12.6314 15.8345 12.9357C17.6678 13.6984 18.3303 14.4362 18.3344 15.7116C18.3344 16.4077 18.0803 17.0996 17.6761 17.4955C17.0886 18.0707 16.1761 18.3417 14.8387 18.3375C13.9429 18.3375 13.1679 18.2041 12.5971 17.9582L12.3762 17.8665V16.937C12.3762 16.4244 12.3637 15.97 12.3471 15.9284C12.3304 15.8867 12.3887 15.92 12.4762 16.0076C12.6846 16.2076 13.3887 16.5536 13.8137 16.6661C14.7928 16.9204 15.8387 16.7411 16.1178 16.266C16.1928 16.1368 16.2095 16.0576 16.197 15.8617C16.172 15.4157 15.8303 15.0947 14.9595 14.7029C13.7345 14.1528 13.2971 13.8902 12.9096 13.4567C12.4721 12.9732 12.3179 12.5105 12.3429 11.752C12.3637 11.1768 12.4471 10.91 12.7387 10.4807C13.1846 9.82631 14.0012 9.41784 15.122 9.28863C15.5387 9.23862 16.5511 9.27196 17.0261 9.35116ZM11.6179 10.2973L11.6263 11.1226H10.3763H9.12633V14.6863V18.25H8.10553H7.08472V14.6863V11.1226L5.84725 11.1142L4.60562 11.1017L4.59312 10.3307C4.58895 9.90968 4.59312 9.53872 4.60145 9.50954C4.61812 9.46369 5.29727 9.45536 8.11386 9.46369L11.6054 9.4762L11.6179 10.2973Z" fill="#3B77C6"/>
</svg>
