<svg width="21" height="20" viewBox="0 0 21 20" fill="none" xmlns="http://www.w3.org/2000/svg">
<path d="M20.1696 2.11878L15.864 0.124373C15.3657 -0.106478 14.7701 -0.00909968 14.3789 0.367181L0.284056 12.7308C-0.0950597 13.0634 -0.0946239 13.6376 0.284996 13.9696L1.43631 14.9765C1.74667 15.248 2.21407 15.2679 2.54822 15.0241L19.5217 2.63617C20.0911 2.22058 20.909 2.61131 20.909 3.29894V3.25085C20.909 2.76817 20.6216 2.32817 20.1696 2.11878Z" fill="#0065A9"/>
<path d="M20.1696 17.8814L15.864 19.8758C15.3657 20.1066 14.7701 20.0092 14.3789 19.633L0.284056 7.26936C-0.0950597 6.93681 -0.0946239 6.36258 0.284996 6.03057L1.43631 5.02363C1.74667 4.75219 2.21407 4.73221 2.54822 4.97609L19.5217 17.364C20.0911 17.7795 20.909 17.3889 20.909 16.7012V16.7493C20.909 17.232 20.6216 17.672 20.1696 17.8814Z" fill="#007ACC"/>
<path d="M15.8639 19.876C15.3654 20.1066 14.7698 20.0092 14.3787 19.6329C14.8606 20.0965 15.6847 19.7681 15.6847 19.1124V0.887442C15.6847 0.23172 14.8606 -0.0966692 14.3787 0.366998C14.7698 -0.00931791 15.3654 -0.106833 15.8639 0.123814L20.1687 2.11547C20.6211 2.32476 20.9088 2.76492 20.9088 3.24781V16.7521C20.9088 17.235 20.6211 17.6751 20.1687 17.8844L15.8639 19.876Z" fill="#1F9CF0"/>
<g style="mix-blend-mode:overlay" opacity="0.25">
<path style="mix-blend-mode:overlay" opacity="0.25" fill-rule="evenodd" clip-rule="evenodd" d="M14.818 19.9145C15.1471 20.0378 15.5224 20.03 15.8545 19.8762L20.1567 17.8845C20.6089 17.6753 20.8964 17.2351 20.8964 16.7522V3.24793C20.8964 2.76504 20.6089 2.32487 20.1568 2.11559L15.8545 0.123936C15.4187 -0.0778801 14.9084 -0.0284478 14.5258 0.239167C14.4711 0.277396 14.4191 0.32008 14.3702 0.367119L6.13413 7.59595L2.54667 4.97609C2.21272 4.73221 1.7456 4.7522 1.43544 5.02362L0.284823 6.03057C-0.0945667 6.36259 -0.0950018 6.93681 0.283884 7.26937L3.39506 10L0.283884 12.7307C-0.0950018 13.0633 -0.0945667 13.6375 0.284823 13.9695L1.43544 14.9764C1.7456 15.2479 2.21272 15.2679 2.54667 15.024L6.13413 12.4041L14.3702 19.633C14.5004 19.7584 14.6535 19.8529 14.818 19.9145ZM15.6755 5.43632L9.42615 10L15.6755 14.5638V5.43632Z" fill="url(#paint0_linear)"/>
</g>
<defs>
<linearGradient id="paint0_linear" x1="10.4482" y1="0.000121992" x2="10.4482" y2="20" gradientUnits="userSpaceOnUse">
<stop stop-color="white"/>
<stop offset="1" stop-color="white" stop-opacity="0"/>
</linearGradient>
</defs>
</svg>
