<svg width="55" height="17" viewBox="0 0 55 17" fill="none" xmlns="http://www.w3.org/2000/svg">
<path d="M0.957031 13.6953C1.01562 13.2721 1.13932 12.6895 1.32812 11.9473C1.52344 11.1986 1.77083 10.401 2.07031 9.55469C2.75391 7.61458 3.56445 5.88607 4.50195 4.36914C4.63216 4.16081 4.79818 4.04036 5 4.00781C5.28646 3.96875 5.53711 3.94922 5.75195 3.94922C5.97331 3.94922 6.16862 3.97526 6.33789 4.02734C6.51367 4.07292 6.65039 4.13477 6.74805 4.21289C6.94336 4.37565 6.97591 4.54818 6.8457 4.73047C5.66732 6.50781 4.63867 8.67578 3.75977 11.2344C3.42773 12.2109 3.22917 12.8913 3.16406 13.2754C3.09896 13.653 3.05013 13.9134 3.01758 14.0566C2.99154 14.1934 2.97852 14.3138 2.97852 14.418C2.97852 14.6328 3.11523 14.7402 3.38867 14.7402C3.66211 14.7402 3.9681 14.6784 4.30664 14.5547C4.64518 14.4245 5.00977 14.2454 5.40039 14.0176C5.79102 13.7832 6.19466 13.5 6.61133 13.168C7.03451 12.8359 7.44792 12.4648 7.85156 12.0547C8.25521 11.638 8.63607 11.1888 8.99414 10.707C9.35221 10.2253 9.66471 9.71745 9.93164 9.18359C10.5241 8.01172 10.8203 6.85612 10.8203 5.7168C10.8203 4.1543 10.1855 3.11589 8.91602 2.60156C8.47331 2.42578 8.01107 2.33789 7.5293 2.33789C7.05404 2.33789 6.65039 2.37044 6.31836 2.43555C5.98633 2.49414 5.66732 2.57878 5.36133 2.68945C4.74284 2.91081 4.22201 3.20703 3.79883 3.57812C3.68815 3.64323 3.55469 3.67578 3.39844 3.67578C3.24219 3.67578 3.07292 3.63021 2.89062 3.53906C2.71484 3.44792 2.55534 3.33398 2.41211 3.19727C2.08659 2.87826 1.95638 2.57227 2.02148 2.2793C2.0931 1.86263 2.7181 1.5013 3.89648 1.19531C4.88607 0.941406 5.88216 0.814453 6.88477 0.814453C7.88737 0.814453 8.78906 0.951172 9.58984 1.22461C10.3971 1.49805 11.0514 1.86589 11.5527 2.32812C12.4902 3.20052 12.959 4.36914 12.959 5.83398C12.959 7.77409 12.2884 9.64583 10.9473 11.4492C9.7168 13.1224 8.25195 14.3919 6.55273 15.2578C5.45247 15.8177 4.4401 16.0977 3.51562 16.0977C2.79297 16.0977 2.17122 15.8861 1.65039 15.4629C1.09049 15.0137 0.859375 14.4245 0.957031 13.6953ZM13.418 12.582C13.444 12.0156 13.5384 11.4753 13.7012 10.9609C13.8639 10.4401 14.082 9.9388 14.3555 9.45703C14.6289 8.96875 14.9479 8.50977 15.3125 8.08008C15.6836 7.64388 16.084 7.26302 16.5137 6.9375C17.4447 6.24089 18.3854 5.89258 19.3359 5.89258C20.4492 5.89258 21.1914 6.35156 21.5625 7.26953C21.6927 7.58203 21.7546 7.95312 21.748 8.38281C21.7415 8.80599 21.6602 9.19987 21.5039 9.56445C21.3477 9.92253 21.1296 10.2513 20.8496 10.5508C20.5762 10.8438 20.2474 11.1074 19.8633 11.3418C19.4857 11.5762 19.0723 11.7747 18.623 11.9375C17.6986 12.263 16.709 12.4323 15.6543 12.4453C15.6283 12.5365 15.612 12.6732 15.6055 12.8555C15.599 13.0378 15.6185 13.2428 15.6641 13.4707C15.7096 13.6921 15.7878 13.8906 15.8984 14.0664C16.1328 14.457 16.4714 14.6523 16.9141 14.6523C17.6693 14.6523 18.4049 14.431 19.1211 13.9883C19.375 13.8385 19.5801 13.6855 19.7363 13.5293C19.8991 13.3665 20.0391 13.2852 20.1562 13.2852C20.2734 13.2852 20.3743 13.3568 20.459 13.5C20.5501 13.6367 20.5957 13.793 20.5957 13.9688C20.5957 14.3138 20.498 14.6133 20.3027 14.8672C19.4824 15.6875 18.2617 16.0977 16.6406 16.0977C15.6836 16.0977 14.9154 15.8112 14.3359 15.2383C13.6849 14.5872 13.3789 13.7018 13.418 12.582ZM19.1211 7.19141C18.4375 7.19141 17.7799 7.66016 17.1484 8.59766C16.6146 9.40495 16.1849 10.362 15.8594 11.4688C16.9466 11.3581 17.8906 10.9284 18.6914 10.1797C19.4271 9.47656 19.7949 8.80273 19.7949 8.1582C19.7949 7.51367 19.5703 7.19141 19.1211 7.19141ZM22.793 15.0527C22.6953 14.8379 22.6465 14.584 22.6465 14.291C22.6465 13.998 22.6921 13.6758 22.7832 13.3242C22.8743 12.9661 22.9915 12.6016 23.1348 12.2305C23.278 11.8594 23.4375 11.4818 23.6133 11.0977L24.1113 9.96484C24.7559 8.47396 24.9935 7.59505 24.8242 7.32812C24.7461 7.20443 24.5964 7.08073 24.375 6.95703C24.3034 6.91146 24.2676 6.83333 24.2676 6.72266C24.2676 6.60547 24.3132 6.49479 24.4043 6.39062C24.502 6.28646 24.6289 6.19531 24.7852 6.11719C25.0977 5.96745 25.4134 5.89258 25.7324 5.89258C26.0514 5.89258 26.2923 5.92839 26.4551 6C26.6243 6.0651 26.7643 6.14974 26.875 6.25391C27.0833 6.46875 27.1875 6.72917 27.1875 7.03516C27.1875 7.34115 27.1289 7.6862 27.0117 8.07031C26.8945 8.45443 26.748 8.85807 26.5723 9.28125C26.3965 9.70443 26.2044 10.1374 25.9961 10.5801L25.4199 11.8594C25.0098 12.8034 24.8047 13.4284 24.8047 13.7344C24.8047 14.3333 25.0163 14.6328 25.4395 14.6328C26.5267 14.6328 27.5456 13.9883 28.4961 12.6992C29.0495 11.9505 29.4466 11.1367 29.6875 10.2578C29.7982 9.84115 29.8535 9.46354 29.8535 9.125C29.8535 8.77995 29.8405 8.49349 29.8145 8.26562C29.7949 8.03776 29.7591 7.83594 29.707 7.66016C29.6224 7.34766 29.4792 7.07747 29.2773 6.84961C29.1406 6.68034 29.2025 6.48177 29.4629 6.25391C29.7493 6.01302 30.1562 5.89258 30.6836 5.89258C31.0091 5.89258 31.2956 6.04557 31.543 6.35156C31.8555 6.71615 32.0117 7.24023 32.0117 7.92383C32.0117 8.60091 31.9108 9.26823 31.709 9.92578C31.5072 10.5768 31.2305 11.2051 30.8789 11.8105C30.5273 12.4095 30.1107 12.9694 29.6289 13.4902C29.1536 14.0111 28.6393 14.4635 28.0859 14.8477C26.901 15.681 25.7161 16.0977 24.5312 16.0977C23.6784 16.0977 23.099 15.7493 22.793 15.0527ZM34.7266 12.2012L34.6387 12.9531C34.6387 13.7409 34.9023 14.278 35.4297 14.5645C35.612 14.6621 35.8301 14.7109 36.084 14.7109C36.3379 14.7109 36.5658 14.6686 36.7676 14.584C36.9694 14.4928 37.1354 14.3757 37.2656 14.2324C37.5391 13.9395 37.6758 13.6009 37.6758 13.2168C37.6758 12.8327 37.5977 12.4844 37.4414 12.1719C37.2852 11.8594 37.0898 11.5469 36.8555 11.2344L36.0742 10.2773C35.4427 9.52214 35.0195 8.83529 34.8047 8.2168C34.5898 7.5918 34.4824 7.01888 34.4824 6.49805C34.4824 5.97721 34.5443 5.48568 34.668 5.02344C34.7982 4.55469 34.9772 4.11198 35.2051 3.69531C35.4329 3.27214 35.7064 2.88477 36.0254 2.5332C36.3444 2.18164 36.6992 1.87891 37.0898 1.625C37.9036 1.07812 38.7109 0.804688 39.5117 0.804688C40.3125 0.804688 40.9375 0.915365 41.3867 1.13672C41.8359 1.35807 42.1973 1.63802 42.4707 1.97656C42.9785 2.61458 43.2324 3.38607 43.2324 4.29102C43.2324 5.13086 42.9948 5.92188 42.5195 6.66406C42.0833 7.34115 41.5951 7.77083 41.0547 7.95312C40.9375 8.01172 40.7747 8.04102 40.5664 8.04102C40.3646 8.04102 40.1921 8.01172 40.0488 7.95312C39.9121 7.88802 39.7917 7.80339 39.6875 7.69922C39.4596 7.47135 39.3457 7.22396 39.3457 6.95703C39.3457 6.77474 39.401 6.6543 39.5117 6.5957C40.0065 6.32878 40.4362 5.94141 40.8008 5.43359C41.1979 4.88021 41.4062 4.33008 41.4258 3.7832C41.4453 3.22982 41.3118 2.82292 41.0254 2.5625C40.7454 2.29557 40.3711 2.16211 39.9023 2.16211C39.4336 2.16211 39.0104 2.26953 38.6328 2.48438C38.2552 2.69271 37.9297 2.97591 37.6562 3.33398C37.0703 4.10221 36.7773 5.01042 36.7773 6.05859C36.7773 6.75521 37.0182 7.49089 37.5 8.26562C37.7018 8.59766 37.9199 8.92643 38.1543 9.25195C38.3952 9.57096 38.6198 9.89974 38.8281 10.2383C39.3034 11.026 39.541 11.7324 39.541 12.3574C39.541 12.9824 39.4271 13.5098 39.1992 13.9395C38.9779 14.3691 38.6816 14.7435 38.3105 15.0625C37.5098 15.7526 36.5983 16.0977 35.5762 16.0977C34.6126 16.0977 33.8704 15.8112 33.3496 15.2383C32.9329 14.776 32.7246 14.2747 32.7246 13.7344C32.7246 13.1484 32.8906 12.6536 33.2227 12.25C33.4766 11.944 33.7207 11.7617 33.9551 11.7031C34.4694 11.5664 34.7266 11.7324 34.7266 12.2012ZM44.6094 13.627C44.1276 14.3496 43.6523 14.9388 43.1836 15.3945C42.7214 15.8438 42.2721 16.0684 41.8359 16.0684C41.6146 16.0684 41.4486 16.0163 41.3379 15.9121C41.1491 15.7428 41.0547 15.5833 41.0547 15.4336C41.0547 15.2839 41.1035 15.1732 41.2012 15.1016C42.1842 14.3919 43.2747 12.3086 44.4727 8.85156L45.0488 7.21094C45.7129 5.33594 46.276 4.17383 46.7383 3.72461C46.901 3.60091 47.0703 3.53906 47.2461 3.53906C47.4219 3.53906 47.5749 3.56836 47.7051 3.62695C47.8353 3.67904 47.9492 3.7474 48.0469 3.83203C48.2682 4.02734 48.3789 4.25521 48.3789 4.51562C48.3789 4.61328 48.3333 4.75326 48.2422 4.93555C48.151 5.11784 48.0469 5.35547 47.9297 5.64844L46.6895 9.0957C48.2715 8.80924 49.5768 8.15495 50.6055 7.13281C51.569 6.17578 52.0508 5.19271 52.0508 4.18359C52.0508 3.22656 51.6211 2.59831 50.7617 2.29883C50.4688 2.19466 50.127 2.14258 49.7363 2.14258C49.3522 2.14258 48.9583 2.19141 48.5547 2.28906C48.151 2.38672 47.7539 2.51367 47.3633 2.66992C46.5755 2.98893 45.931 3.36328 45.4297 3.79297C45.2995 3.91667 45.1562 3.97852 45 3.97852C44.8438 3.97852 44.6973 3.94596 44.5605 3.88086C44.4238 3.81576 44.3034 3.73112 44.1992 3.62695C43.9583 3.39909 43.8379 3.16797 43.8379 2.93359C43.8379 2.69271 43.9225 2.47786 44.0918 2.28906C44.2611 2.10026 44.4857 1.93099 44.7656 1.78125C45.0456 1.625 45.3678 1.48828 45.7324 1.37109C46.097 1.2474 46.4714 1.14323 46.8555 1.05859C47.6367 0.895833 48.4115 0.814453 49.1797 0.814453C49.9544 0.814453 50.6608 0.912109 51.2988 1.10742C51.9434 1.29622 52.474 1.55339 52.8906 1.87891C53.7305 2.52995 54.1504 3.35677 54.1504 4.35938V4.51562C54.0918 5.74609 53.6263 6.83008 52.7539 7.76758C51.9922 8.58138 51.0091 9.22266 49.8047 9.69141C48.7174 10.1211 47.6888 10.3359 46.7188 10.3359H46.4648C46.3802 10.3359 46.2988 10.3294 46.2207 10.3164C45.6348 11.7943 45.0977 12.8978 44.6094 13.627Z" fill="white" fill-opacity="0.7"/>
</svg>
